<svg xmlns="http://www.w3.org/2000/svg" viewBox="0 0 445.326 90.145"><title>OP-logo</title><g id="Layer_2" data-name="Layer 2"><g id="Layer_1-2" data-name="Layer 1"><path d="M24.862,40.155a11.28,11.28,0,0,1-5.98,5.981,10.966,10.966,0,0,1-4.37.877H11.259a11.078,11.078,0,0,1-4.386-.877,11.237,11.237,0,0,1-6-5.981A10.94,10.94,0,0,1,0,35.786V11.227a10.948,10.948,0,0,1,.877-4.37,11.231,11.231,0,0,1,6-5.98A11.078,11.078,0,0,1,11.259,0h3.253a10.966,10.966,0,0,1,4.37.877,11.273,11.273,0,0,1,5.98,5.98,10.966,10.966,0,0,1,.877,4.37V35.786A10.957,10.957,0,0,1,24.862,40.155ZM21.625,11.227a7.094,7.094,0,0,0-.575-2.855A7.344,7.344,0,0,0,17.175,4.5a7.089,7.089,0,0,0-2.854-.574H11.45A7.089,7.089,0,0,0,8.6,4.5,7.6,7.6,0,0,0,6.267,6.06,7.268,7.268,0,0,0,4.689,8.372a7.094,7.094,0,0,0-.575,2.855V35.786a7.09,7.09,0,0,0,.575,2.854A7.452,7.452,0,0,0,8.6,42.547a7.089,7.089,0,0,0,2.854.574h2.871a7.089,7.089,0,0,0,2.854-.574,7.283,7.283,0,0,0,2.313-1.578A7.6,7.6,0,0,0,21.05,38.64a7.09,7.09,0,0,0,.575-2.854Z" style="fill:#010101"/><path d="M34.893,46.375V.638h4.114V42.452h17.51v3.923Z" style="fill:#010101"/><path d="M71.476,24.5v21.88H67.361V24.559L55.528.638h4.434l9.409,19.009L78.78.638h4.433Z" style="fill:#010101"/><path d="M117.914,46.375V15.022l-.287,1.946L107.006,46.375h-2.168L94.121,16.968l-.255-1.946V46.375H89.751V.638h2.137l13.874,37.508.128,1.69.128-1.69L119.86.638h2.169V46.375Z" style="fill:#010101"/><path d="M157.32,21.943a11.228,11.228,0,0,1-6,5.981,11.064,11.064,0,0,1-4.386.877H136.573V46.375h-4.115V.638h14.48a11.064,11.064,0,0,1,4.386.877,11.189,11.189,0,0,1,6,6A11.064,11.064,0,0,1,158.2,11.9v5.677A10.94,10.94,0,0,1,157.32,21.943ZM154.083,11.9a7.111,7.111,0,0,0-.574-2.855A7.47,7.47,0,0,0,149.6,5.135a7.094,7.094,0,0,0-2.855-.574H136.573V24.878h10.174A7.111,7.111,0,0,0,149.6,24.3a7.611,7.611,0,0,0,2.328-1.563,7.264,7.264,0,0,0,1.579-2.313,7.1,7.1,0,0,0,.574-2.854Z" style="fill:#0d9f49"/><path d="M166.043,46.375V.638h4.115V46.375Z" style="fill:#010101"/><path d="M204.811,40.155a11.28,11.28,0,0,1-5.98,5.981,10.966,10.966,0,0,1-4.37.877h-3.253a11.073,11.073,0,0,1-4.385-.877,11.235,11.235,0,0,1-6-5.981,10.94,10.94,0,0,1-.877-4.369V11.227a10.948,10.948,0,0,1,.877-4.37,11.228,11.228,0,0,1,6-5.98A11.073,11.073,0,0,1,191.208,0h3.253a10.966,10.966,0,0,1,4.37.877,11.273,11.273,0,0,1,5.98,5.98,10.948,10.948,0,0,1,.877,4.37v1.85l-4.114.638V11.227A7.111,7.111,0,0,0,201,8.372,7.353,7.353,0,0,0,197.125,4.5a7.094,7.094,0,0,0-2.855-.574H191.4a7.089,7.089,0,0,0-2.854.574,7.587,7.587,0,0,0-2.328,1.563,7.27,7.27,0,0,0-1.579,2.312,7.094,7.094,0,0,0-.574,2.855V35.786a7.089,7.089,0,0,0,.574,2.854,7.461,7.461,0,0,0,3.907,3.907,7.089,7.089,0,0,0,2.854.574h2.871a7.094,7.094,0,0,0,2.855-.574,7.268,7.268,0,0,0,2.312-1.578A7.6,7.6,0,0,0,201,38.64a7.106,7.106,0,0,0,.574-2.854V33.3l4.114.67v1.818A10.94,10.94,0,0,1,204.811,40.155Z" style="fill:#df1f28"/><path d="M157.3,65.076a11.231,11.231,0,0,1-6,5.98,11.047,11.047,0,0,1-4.386.877H136.555V89.507H132.44V43.77h14.48a11.065,11.065,0,0,1,4.386.878,11.189,11.189,0,0,1,6,6,11.06,11.06,0,0,1,.877,4.385v5.678A10.94,10.94,0,0,1,157.3,65.076Zm-3.237-10.047a7.106,7.106,0,0,0-.574-2.854,7.461,7.461,0,0,0-3.907-3.907,7.094,7.094,0,0,0-2.855-.574H136.555V68.01h10.174a7.094,7.094,0,0,0,2.855-.574,7.575,7.575,0,0,0,2.328-1.563,7.248,7.248,0,0,0,1.579-2.312,7.106,7.106,0,0,0,.574-2.854Z" style="fill:#0d86c7"/><path d="M166.025,89.507V43.77h4.115V89.507Z" style="fill:#010101"/><path d="M204.793,83.288a11.273,11.273,0,0,1-5.98,5.98,10.948,10.948,0,0,1-4.37.877H191.19a11.056,11.056,0,0,1-4.385-.877,11.228,11.228,0,0,1-6-5.98,10.941,10.941,0,0,1-.877-4.37V54.359a10.947,10.947,0,0,1,.877-4.369,11.228,11.228,0,0,1,6-5.98,11.056,11.056,0,0,1,4.385-.877h3.253a10.948,10.948,0,0,1,4.37.877,11.273,11.273,0,0,1,5.98,5.98,10.947,10.947,0,0,1,.877,4.369v1.85l-4.114.638V54.359a7.109,7.109,0,0,0-.574-2.854,7.353,7.353,0,0,0-3.875-3.875,7.094,7.094,0,0,0-2.855-.574h-2.871a7.089,7.089,0,0,0-2.854.574,7.569,7.569,0,0,0-2.328,1.563,7.27,7.27,0,0,0-1.579,2.312,7.092,7.092,0,0,0-.574,2.854V78.918a7.09,7.09,0,0,0,.574,2.855,7.47,7.47,0,0,0,3.907,3.907,7.089,7.089,0,0,0,2.854.574h2.871a7.094,7.094,0,0,0,2.855-.574,7.281,7.281,0,0,0,2.312-1.579,7.6,7.6,0,0,0,1.563-2.328,7.107,7.107,0,0,0,.574-2.855V76.431l4.114.669v1.818A10.941,10.941,0,0,1,204.793,83.288Z" style="fill:#f3c317"/><path d="M225.923,47.694V89.507h-4.114V47.694H210.9V43.77h25.93v3.924Z" style="fill:#010101"/><path d="M267.562,83.288a11.271,11.271,0,0,1-5.981,5.98,10.944,10.944,0,0,1-4.369.877h-3.253a11.061,11.061,0,0,1-4.386-.877,11.231,11.231,0,0,1-6-5.98,10.941,10.941,0,0,1-.877-4.37V54.359a10.947,10.947,0,0,1,.877-4.369,11.231,11.231,0,0,1,6-5.98,11.061,11.061,0,0,1,4.386-.877h3.253a10.944,10.944,0,0,1,4.369.877,11.271,11.271,0,0,1,5.981,5.98,10.964,10.964,0,0,1,.877,4.369V78.918A10.959,10.959,0,0,1,267.562,83.288Zm-3.238-28.929a7.092,7.092,0,0,0-.574-2.854,7.353,7.353,0,0,0-3.875-3.875,7.092,7.092,0,0,0-2.854-.574H254.15a7.09,7.09,0,0,0-2.855.574,7.593,7.593,0,0,0-2.328,1.563,7.27,7.27,0,0,0-1.579,2.312,7.109,7.109,0,0,0-.574,2.854V78.918a7.107,7.107,0,0,0,.574,2.855A7.47,7.47,0,0,0,251.3,85.68a7.09,7.09,0,0,0,2.855.574h2.871a7.092,7.092,0,0,0,2.854-.574,7.27,7.27,0,0,0,2.312-1.579,7.581,7.581,0,0,0,1.563-2.328,7.09,7.09,0,0,0,.574-2.855Z" style="fill:#010101"/><path d="M303.331,89.507h-1.307l-2.392-3.668A11.316,11.316,0,0,1,296,88.981a9.774,9.774,0,0,1-4.753,1.164h-2.392a11.056,11.056,0,0,1-4.385-.877,11.231,11.231,0,0,1-6-5.98,10.924,10.924,0,0,1-.877-4.37V54.359a10.93,10.93,0,0,1,.877-4.369,11.231,11.231,0,0,1,6-5.98,11.056,11.056,0,0,1,4.385-.877h3.254a10.947,10.947,0,0,1,4.369.877,11.273,11.273,0,0,1,5.98,5.98,10.947,10.947,0,0,1,.877,4.369v1.85l-4.114.638V54.359a7.092,7.092,0,0,0-.574-2.854,7.353,7.353,0,0,0-3.875-3.875,7.094,7.094,0,0,0-2.855-.574h-2.87a7.09,7.09,0,0,0-2.855.574,7.593,7.593,0,0,0-2.328,1.563,7.27,7.27,0,0,0-1.579,2.312,7.092,7.092,0,0,0-.574,2.854V78.918a7.09,7.09,0,0,0,.574,2.855,7.47,7.47,0,0,0,3.907,3.907,7.09,7.09,0,0,0,2.855.574h2.87a7.094,7.094,0,0,0,2.855-.574A7.27,7.27,0,0,0,297.08,84.1a7.6,7.6,0,0,0,1.563-2.328,7.09,7.09,0,0,0,.574-2.855V69.382h-7.3V65.459h11.418Z" style="fill:#010101"/><path d="M334.652,89.507,322.245,69.988H316.6V89.507h-4.115V43.77H327a10.949,10.949,0,0,1,4.37.878,11.231,11.231,0,0,1,5.98,6,11.06,11.06,0,0,1,.877,4.385v3.7a11.064,11.064,0,0,1-.877,4.386,11.231,11.231,0,0,1-5.98,6,10.948,10.948,0,0,1-4.37.877L339.4,89.507Zm-.542-34.478a7.106,7.106,0,0,0-.574-2.854,7.615,7.615,0,0,0-1.563-2.329,7.283,7.283,0,0,0-2.313-1.578,7.086,7.086,0,0,0-2.854-.574H316.6V66.065h10.206a7.1,7.1,0,0,0,2.854-.574,7.286,7.286,0,0,0,2.313-1.579,7.611,7.611,0,0,0,1.563-2.328,7.107,7.107,0,0,0,.574-2.855Z" style="fill:#010101"/><path d="M364.41,78.855H349.93l-3,10.652h-4.273L356.053,43.77h2.169l13.46,45.737H367.44Zm-13.364-3.923h12.279L357.3,53.849l-.127-1.69-.128,1.69Z" style="fill:#010101"/><path d="M405.713,89.507V58.155l-.287,1.946L394.805,89.507h-2.169L381.92,60.1l-.255-1.946V89.507H377.55V43.77h2.137l13.874,37.509.128,1.69.127-1.69L407.659,43.77h2.169V89.507Z" style="fill:#010101"/><path d="M445.326,78.918a10.313,10.313,0,0,1-.941,4.37,11.726,11.726,0,0,1-6.187,5.98,11.3,11.3,0,0,1-4.418.877H430.5a11.287,11.287,0,0,1-4.417-.877,11.733,11.733,0,0,1-6.188-5.98,10.313,10.313,0,0,1-.941-4.37V77.1l4.115-.669v2.487a6.622,6.622,0,0,0,.622,2.855A7.736,7.736,0,0,0,425.36,84.1a7.843,7.843,0,0,0,2.44,1.579,7.555,7.555,0,0,0,2.919.574h2.87a7.431,7.431,0,0,0,2.9-.574,7.887,7.887,0,0,0,2.424-1.579,7.739,7.739,0,0,0,1.675-2.328,6.622,6.622,0,0,0,.622-2.855V77.547a7.606,7.606,0,0,0-.925-3.923,8.731,8.731,0,0,0-2.456-2.663A15.986,15.986,0,0,0,434.37,69.1q-1.929-.766-3.97-1.531t-3.971-1.691a14.344,14.344,0,0,1-3.461-2.312,10.384,10.384,0,0,1-2.456-3.4,11.782,11.782,0,0,1-.925-4.943v-.862a10.947,10.947,0,0,1,.877-4.369,11.228,11.228,0,0,1,6-5.98,11.056,11.056,0,0,1,4.385-.877h2.934a10.948,10.948,0,0,1,4.37.877,11.273,11.273,0,0,1,5.98,5.98,10.947,10.947,0,0,1,.877,4.369V55.54l-4.114.669v-1.85a7.092,7.092,0,0,0-.574-2.854,7.353,7.353,0,0,0-3.875-3.875,7.094,7.094,0,0,0-2.855-.574h-2.552a7.089,7.089,0,0,0-2.854.574,7.569,7.569,0,0,0-2.328,1.563,7.27,7.27,0,0,0-1.579,2.312,7.092,7.092,0,0,0-.574,2.854v.862a6.915,6.915,0,0,0,.925,3.7,8.649,8.649,0,0,0,2.456,2.568,17.424,17.424,0,0,0,3.46,1.85q1.929.782,3.971,1.6t3.971,1.786a14.983,14.983,0,0,1,3.46,2.392,10.649,10.649,0,0,1,2.456,3.46,12.013,12.013,0,0,1,.925,4.976Z" style="fill:#010101"/></g></g></svg>