<svg xmlns="http://www.w3.org/2000/svg" viewBox="0 0 308.07 160.09"><defs><style>.cls-1{fill:#33ffcb;}.cls-2{fill:#f63;}.cls-3{fill:none;stroke:#33ffcb;}.cls-3,.cls-5{stroke-miterlimit:10;}.cls-4,.cls-5{fill:#fff918;}.cls-5{stroke:#f63;stroke-width:1.5px;}</style></defs><title>desktop_logo</title><g id="Layer_2" data-name="Layer 2"><g id="logo"><g id="Layer_2-2" data-name="Layer 2"><g id="main_shapes" data-name="main shapes"><path class="cls-1" d="M204.67,21.56c15.91,2,25.34,6.89,26.56,13.73s-6,14.66-20.21,22a159.79,159.79,0,0,1-27.6,10.77l.9-1.16a6.47,6.47,0,0,1-2,.13l-.06-.2A159.48,159.48,0,0,0,210.33,56c13.41-6.94,20.49-14.39,19.42-20.44S219.46,25,204.48,23.05a139.41,139.41,0,0,0-17.86-1,1.48,1.48,0,0,0-.14-.54,2.89,2.89,0,0,0-.69-1A142.6,142.6,0,0,1,204.67,21.56Z"/><path class="cls-1" d="M182.32,67.07a6.47,6.47,0,0,0,2-.13l-.9,1.16c-.87.26-1.74.51-2.62.76C181.32,68.27,181.83,67.67,182.32,67.07Z"/><path class="cls-1" d="M182.26,66.87l.06.2c-.49.6-1,1.2-1.52,1.79Q169,72.18,156.88,74.31c-8.26,1.47-16.43,2.51-24.34,3.1q-.83-.44-1.64-.9l0-.48a241.82,241.82,0,0,0,25.75-3.2A243.2,243.2,0,0,0,182.26,66.87Z"/><path class="cls-1" d="M180.8,68.92l2.62-.76a41.4,41.4,0,0,1-53.61,9.51H130l2.55-.18a39.88,39.88,0,0,0,48.25-8.56Z"/><path class="cls-2" d="M180.8,68.85a39.88,39.88,0,0,1-48.25,8.56c7.91-.6,16.08-1.64,24.34-3.1Q169,72.18,180.8,68.85Z"/><path class="cls-1" d="M130.9,76.59q.81.48,1.64.9l-2.55.18h-.19L128.65,77A14.46,14.46,0,0,0,130.9,76.59Z"/><path class="cls-1" d="M130.87,76l0,.48a14.46,14.46,0,0,1-2.25.39c.38.25.77.49,1.16.72-15.24,1-28.58.2-38.61-2.21-10.53-2.52-16.6-6.71-17.56-12.13-1.2-6.84,6-14.66,20.21-22a142.3,142.3,0,0,1,17.64-7.52,6.55,6.55,0,0,0,.07,1.57,140.48,140.48,0,0,0-17,7.29C81.13,49.51,74,57,75.12,63c.85,4.77,6.53,8.55,16.43,10.93s23.18,3.12,38.35,2.16Z"/><path class="cls-3" d="M129.81,77.6a41.4,41.4,0,0,0,53.61-9.51"/><path class="cls-3" d="M180.8,68.85a39.88,39.88,0,0,1-48.25,8.56"/><path class="cls-3" d="M183.42,68A159.79,159.79,0,0,0,211,57.24c14.25-7.37,21.42-15.19,20.21-22s-10.64-11.72-26.56-13.73a142.6,142.6,0,0,0-18.88-1,2.89,2.89,0,0,1,.69,1,1.48,1.48,0,0,1,.14.54,139.41,139.41,0,0,1,17.86,1c15,1.9,24.19,6.46,25.27,12.5s-6,13.5-19.42,20.44a159.11,159.11,0,0,1-28.07,10.88,243.2,243.2,0,0,1-25.65,6,241.82,241.82,0,0,1-25.75,3.2l-1,.07c-15.17,1-28.43.22-38.35-2.16S76,67.69,75.12,62.92c-1.07-6.05,6-13.5,19.42-20.44a140.48,140.48,0,0,1,17-7.29,6.55,6.55,0,0,1-.07-1.57,142.3,142.3,0,0,0-17.64,7.52c-14.25,7.38-21.43,15.2-20.21,22,1,5.42,7,9.61,17.56,12.13,10,2.41,23.37,3.17,38.61,2.21H130l2.55-.18c7.91-.6,16.08-1.64,24.34-3.1q12.09-2.13,23.92-5.46Z"/><path class="cls-1" d="M191.89,34.38v0a4.24,4.24,0,0,0-.35-.86,1.69,1.69,0,0,1-.76.41,1.12,1.12,0,0,1-.23.46l-.14.14a40,40,0,0,0-78.76,14.19,4.86,4.86,0,0,1-.35-2.34,5.44,5.44,0,0,1-.18-.71,4.88,4.88,0,0,0-.9,3.56,41.51,41.51,0,0,1,81.68-14.88Z"/><path class="cls-1" d="M192,34.41c0,.12.06.24.08.36.42,2.36-1.11,6.14-10.78,10.76-7.27,3.47-17.21,6.44-28,8.35s-21.14,2.55-29.16,1.81c-10.67-1-13.4-4-13.82-6.39v0l.11.21,0,0,.48.71a2.91,2.91,0,0,1,.19.36c.35.06.7.13,1,.2-.13-.58-.25-1.16-.36-1.75.9,5,17.67,7.57,41.24,3.38S191.52,40.06,190.64,35q.3,1.7.45,3.39a8.3,8.3,0,0,0,.6-1A27.36,27.36,0,0,1,192,34.41Z"/><path class="cls-1" d="M191.59,33.55a4.24,4.24,0,0,1,.35.86,27.35,27.35,0,0,0-.35,3,8.3,8.3,0,0,1-.6,1q-.15-1.69-.45-3.39h0l-.08-.46.14-.14a1.12,1.12,0,0,0,.23-.46A1.69,1.69,0,0,0,191.59,33.55Z"/><path class="cls-1" d="M190.46,34.56c0,.15.06.3.08.46a2.48,2.48,0,0,0-.12-.43Z"/><path class="cls-2" d="M190.54,35h0c.88,5-14,13.19-37.56,17.37S112.64,54,111.75,49h0c0-.07,0-.14,0-.2l0-.06a40,40,0,0,1,78.75-14.19l0,0A2.48,2.48,0,0,1,190.54,35Z"/><path class="cls-1" d="M111.17,45.7a5.44,5.44,0,0,0,.18.71,4.86,4.86,0,0,0,.35,2.34,1.35,1.35,0,0,0,0,.26h0c.11.6.23,1.17.36,1.75-.35-.08-.7-.14-1-.2a2.91,2.91,0,0,0-.19-.36c-.15-.24-.3-.47-.48-.71l0,0-.11-.21A4.92,4.92,0,0,1,111.17,45.7Z"/><path class="cls-1" d="M111.7,48.75l0,.06a.68.68,0,0,0,0,.2Z"/><path class="cls-3" d="M111.7,48.75a40,40,0,0,1,78.75-14.19"/><path class="cls-3" d="M192,34.35v0a41.51,41.51,0,0,0-81.68,14.88"/><path class="cls-3" d="M191.88,34.41a4.24,4.24,0,0,0-.35-.86,1.69,1.69,0,0,1-.76.41,1.12,1.12,0,0,1-.23.46l-.14.14,0,0a2.48,2.48,0,0,1,.12.43h0c.88,5-14,13.2-37.56,17.37S112.58,54,111.69,49h0c0-.07,0-.14,0-.2l0-.06a4.86,4.86,0,0,1-.35-2.34,5.44,5.44,0,0,1-.18-.71,4.88,4.88,0,0,0-.9,3.56v0c.42,2.36,3.16,5.38,13.82,6.39,8,.76,18.38.12,29.16-1.81s20.73-4.88,28-8.35c9.67-4.62,11.19-8.4,10.78-10.76C191.94,34.65,191.92,34.54,191.88,34.41Z"/><path class="cls-1" d="M98.45,53.72a17.68,17.68,0,0,0,5.76,5.06c.51.28,1-.5.45-.78a16.66,16.66,0,0,1-5.42-4.74c-.34-.46-1.13,0-.78.45Z"/><path class="cls-1" d="M93.27,58q4.83,2.68,9.63,5.42A2.74,2.74,0,0,0,107,61.11c.1-2.08-1.41-3.17-2.11-4.94a6.54,6.54,0,0,1,0-4.57c.81-2.48-2.79-4.74-4.51-2.64-.52.63-1.06,1.24-1.64,1.82s-1.17.9-1.58,1.41l-.39.23,1,.27c.08,0,.09.29.17.25a10.13,10.13,0,0,0,1-1.59l-4.95-.65q0-.3-.08,0l4.95.65A5.61,5.61,0,0,1,99.94,47c1.32-1.85-.9-4.81-3.06-4-1.59.62-4.1,2.23-5.81,1.6l1.2,4.51a24.07,24.07,0,0,1,8.2-4.11l-3.36-1.89A24.54,24.54,0,0,1,97,50.45l5.32.72a8,8,0,0,0-.36-3.48c-.66-2-3.87-2.87-4.95-.65l-.3.62a2.78,2.78,0,0,0,1,3.7,2.73,2.73,0,0,0,3.7-1l.3-.62-4.95-.65a4.19,4.19,0,0,1,.17,2c-.38,3,4.81,3.73,5.32.72a33.31,33.31,0,0,0,.11-10.16c-.2-1.44-2.07-2.25-3.33-1.89a30.9,30.9,0,0,0-10.59,5.51c-1.76,1.38-.49,3.91,1.2,4.51,3,1.09,6-.54,8.69-1.6l-3.06-4a11,11,0,0,0-1.73,8.46c.41,2.35,3.87,2.56,4.95.65a5.77,5.77,0,0,0,.63-4.15c-.44-2.51-3.75-2.36-4.95-.65-1.9,2.71-2.66,6.88.87,8.7s7.07-2,9.09-4.51l-4.51-2.64a12,12,0,0,0-.33,6.14,11.57,11.57,0,0,0,1,2.79,9.19,9.19,0,0,0,.69,1.17q.2.29.41.56l.2.3,4.07-2.34q-4.81-2.74-9.63-5.42c-3.05-1.69-5.79,3-2.73,4.68Z"/><path class="cls-1" d="M96.39,46.78a40.74,40.74,0,0,1-4.14,4.57c-.75.7-1.52,1.39-2.33,2q-.43.35-.88.67l-.63.45q-.87.47,0,.22l1.37.37-.26-.14,1,1-.13-.27L90.77,57a8.25,8.25,0,0,1,1.67-3,10.79,10.79,0,0,1,3.07-2.6l-3.71-3.7a3.93,3.93,0,0,1-1.35,1.46c-.37.26-1.56.6-1.81.93s0-1.06,0,.39a.44.44,0,0,1,.11.61l0,0,0-.11c-.15,0,1.08-.48.8-.4a8.54,8.54,0,0,1,1.15-.22c1.91-.3,3.81-.56,5.72-1q1.33-.3,2.64-.69l1.56-.49.52-.17q1-.23.11-.21l-1.62-1.25c.56.75.55,2.51.72,3.45q.36,1.95.69,3.9c.3,1.74,1.36,4.34-.67,5.29a11,11,0,0,1-5.88.9A2.49,2.49,0,0,1,92.79,59c-.09-.14,0-.2,0-.32a.39.39,0,0,1,.11-.15q-.62.06.11.06l-2.33-1.34q0-.75-.23-.32t-.49.71a9.23,9.23,0,0,0-.87,1.46,3.35,3.35,0,0,0,1,4.38c2.41,1.53,6.22-.3,8.3-1.68s1.45-5.08-1.37-5.15H91.11v5.72l3-.05-1.35-5c-1.79,1.25-3.93.77-5.84,0a10.65,10.65,0,0,1-1.61-.82c-.57-.37-.38-.41-.4-.12a6.35,6.35,0,0,1,.85-1.64l1-1.88-4.9-.64c-.14-.87,0-.34-.16-.11a3.57,3.57,0,0,0-.48,1.12A4.37,4.37,0,0,0,81,55.65c.53,2.15,2.5,2.89,4.47,3.13A19.22,19.22,0,0,0,96.3,56.51,41.36,41.36,0,0,0,105.65,50c3-2.76,4.77-6.26,4.2-10.36-.2-1.49-2-2.16-3.3-1.87l-6,1.37c-3.36.77-1.94,5.94,1.43,5.17l6-1.37L104.68,41c.27,2-1.49,3.91-2.82,5.14a38.8,38.8,0,0,1-5.18,3.94c-3.15,2-8,4.66-11.86,3.07l1.19.69c1.24,1-.19,1.6.3.89a6,6,0,0,0,.56-1.3A5.26,5.26,0,0,0,87,50.71c-.39-2.27-3.92-2.57-4.92-.63s-2.66,4.21-2.59,6.44,1.93,4,3.87,5c3.7,1.88,8.42,3,12.08.43,2.09-1.44,1.49-5-1.35-5l-3,.05c-3.45.06-3.46,5.41,0,5.36H97l-1.35-5.24a7.37,7.37,0,0,1-3.87,1.49l1.37.37-.33-.18L94,60.38l-.22-.32V61.5c.33-1,1.39-1.9,1.76-2.9a5,5,0,0,0-.26-4.12A2.71,2.71,0,0,0,93,53.13a5.6,5.6,0,0,0-5.66,5.47c-.08,3,2.2,5.43,4.91,6.42s6.14.48,8.88-.36,5.17-2.57,5.76-5.49-.5-6.52-1-9.52c-.51-2.83-.69-7.92-4.85-7.22-1.47.24-2.92.9-4.37,1.29a49.1,49.1,0,0,1-4.81,1c-2.93.48-6.08.67-7.71,3.57a4.82,4.82,0,0,0,4.16,7.13c3.15.15,6.78-2.36,8.22-5.06a2.73,2.73,0,0,0-3.7-3.7,16.31,16.31,0,0,0-5.6,5.39C85.82,54.22,84,58,86.95,59.7c2.64,1.53,5.52-1.4,7.4-3a40.16,40.16,0,0,0,5.87-6.13,2.79,2.79,0,0,0,0-3.83c-.94-.94-2.92-1.16-3.83,0Z"/><path class="cls-1" d="M99.25,51.4a39.77,39.77,0,0,0,7.65,13.41c1.24,1.44,4.23.79,4.51-1.2a20.11,20.11,0,0,0-.62-9.3c-.49-1.49-1.27-2.82-1.86-4.26-.17-.41-.73-1.7-.19-2l-4.07-2.34c.19,3.74.45,7.69,2.41,11a10.62,10.62,0,0,0,8.48,5.42A2.73,2.73,0,0,0,117.91,58a26,26,0,0,0-13.45-10.57,2.72,2.72,0,0,0-3.33,1.89c-.83,3.91,1.49,7.22,4.85,9s7.29,3.13,10.91,4.63l-2-2.61c0-2.45,1-.9.3-1a4.71,4.71,0,0,0-1,.16c-1,.13-2,.23-2.93.33q-2.79.28-5.59.42c-3.83.2-7.67.2-11.5,0-3-.13-3.74,4.7-.72,5.32a171.76,171.76,0,0,0,28.68,3.41q7.12.23,14.23-.14,3.48-.18,7-.51c2.5-.24,4.63-.36,6.24-2.51,1.27-1.71-.46-4.07-2.34-4.07a212.18,212.18,0,0,1-31.75-2.43v5.22q10.06-1.46,20.16-2.64a2.71,2.71,0,0,0,0-5.42L109,53.27l1.37,5c2.35-1,5.65.55,7.93,1.13a82,82,0,0,0,9.76,1.75c6.62.86,13.36,1.78,20,1.44l-.72-5.32a139.13,139.13,0,0,1-15.88,1.19c-3.52.07-3.45,5.16,0,5.42A104.67,104.67,0,0,0,163,61.45l-1.44-5.22C153,59,144.13,60.35,135.21,61.42a2.74,2.74,0,0,0-2.66,2.35,2.68,2.68,0,0,0,1.94,3,74.88,74.88,0,0,0,41.85-5.38c2.57-1.13,1.13-5-1.37-5H131.66s-3.49,5.14,0,5.11h43.19l-1.37-4.78a68.2,68.2,0,0,1-37.67,4.83l-.72,5.32c9.38-1.13,18.78-2.48,27.8-5.38a2.71,2.71,0,0,0-1.44-5.22,99.5,99.5,0,0,1-30,2.27v5.42a151.49,151.49,0,0,0,17.29-1.38c3-.41,2.3-5.47-.72-5.32-7,.35-14.12-.58-21-1.58a76.84,76.84,0,0,1-9.68-2.07c-3.34-.93-6.5-1.37-9.75.06a2.73,2.73,0,0,0-1.25,3.06,2.85,2.85,0,0,0,2.61,2l26.74,3.29V56.55Q124.82,57.81,114,59.38c-2.59.38-2.58,4.81,0,5.22a221.71,221.71,0,0,0,33.19,2.62l-2.34-4.07-.24.32,1-1a4.26,4.26,0,0,1-2.3.48q-1.59.15-3.18.27-3.19.24-6.38.36-6.53.24-13.07,0A162.6,162.6,0,0,1,94.9,60.42l-.72,5.32a121.1,121.1,0,0,0,15-.27,49.82,49.82,0,0,0,7.24-.82c2.11-.5,3.87-2,3.87-4.28a2.81,2.81,0,0,0-2-2.61c-2.65-1.1-5.31-2.18-8-3.31-1.32-.57-4.44-1.73-4-3.67L103,52.67a20,20,0,0,1,10.21,8.1l2.35-4.07c-5-.32-5.29-7.45-5.48-11A2.74,2.74,0,0,0,106,43.35c-3.33,2.05-3.31,6-1.86,9.2s2.56,6.08,2,9.63l4.51-1.2a32.93,32.93,0,0,1-6.26-11c-1.1-3.29-6.34-1.88-5.22,1.44Z"/><path class="cls-1" d="M140.85,61.42,172,58.08a2.79,2.79,0,0,0,2.71-2.71A2.72,2.72,0,0,0,172,52.66L134.73,56.4v5.41l50.74-5.21L183.56,52C179,56,173,58.14,167,58.93a63.46,63.46,0,0,1-10.18.39,26.77,26.77,0,0,1-4.34-.28,4.78,4.78,0,0,1-1.28-.38c-.48-.26-.45-.67-.35,0L149.46,61a37.43,37.43,0,0,1,7.77-2.17L165.92,57l17.39-3.73c3.4-.73,2-5.95-1.44-5.22l-18,3.85c-5.73,1.23-11.81,2-17.18,4.46a2.61,2.61,0,0,0-1.34,2.34c.51,3.87,3.69,5.41,7.27,5.82a63.31,63.31,0,0,0,12.62,0c8.09-.74,15.94-3.25,22.11-8.7,1.67-1.48.42-4.86-1.91-4.62l-50.73,5.23A2.79,2.79,0,0,0,132,59.12a2.72,2.72,0,0,0,2.71,2.71L172,58.08V52.67L140.85,56a2.79,2.79,0,0,0-2.71,2.71A2.73,2.73,0,0,0,140.85,61.42Z"/><path class="cls-1" d="M171.09,57.08a102.69,102.69,0,0,0,12.49-3c4-1.2,8.28-2.41,11.59-5,2.22-1.73-.21-5.2-2.64-4.51L178,48.66c-2.29.64-4.57,1.31-6.89,1.84a46.23,46.23,0,0,1-7.07.85c-4.88.35-9.73,1.81-14.53,2.74q-3.76.74-7.52,1.41l-3.48.6a5.37,5.37,0,0,0-1.74.3c-.49.35-.78-.63.09.53L134.48,61q5.78-.5,11.56-.83c3.46-.2,3.49-5.62,0-5.42q-5.79.34-11.56.83c-1.81.16-3.69,2.27-2.34,4.07,1.57,2.11,3.58,2.33,6,2,2.71-.42,5.42-.93,8.12-1.44,5.39-1,10.75-2.41,16.16-3.26,2.61-.41,5.26-.33,7.87-.78A77.56,77.56,0,0,0,178,54.27l16-4.47-2.64-4.51a16.81,16.81,0,0,1-4.7,2.11q-2.76,1-5.57,1.82a102.52,102.52,0,0,1-11.43,2.65,2.73,2.73,0,0,0-1.89,3.33,2.77,2.77,0,0,0,3.33,1.89Z"/><path class="cls-1" d="M165.15,55.83c9.55-1.75,18.57-5.06,27.59-8.57a2.78,2.78,0,0,0,1.89-3.33A2.73,2.73,0,0,0,191.31,42c-9,3.51-18.05,6.82-27.59,8.57a2.74,2.74,0,0,0-1.89,3.33,2.77,2.77,0,0,0,3.33,1.89Z"/><path class="cls-1" d="M182.24,50c3.94-1.55,8-3.44,11.24-6.25s3.79-6.84,4-10.87c.18-3.48-5.24-3.47-5.42,0-.14,2.79-.36,5.45-2.71,7.29a34.24,34.24,0,0,1-8.55,4.61,2.79,2.79,0,0,0-1.89,3.33A2.73,2.73,0,0,0,182.24,50Z"/><path class="cls-1" d="M195.2,28.81q.87.68-.05-.48l.37-1.37.3-.22a7.22,7.22,0,0,1-.63.36.69.69,0,0,1-.34.14q-.25.09,0-.08a2.74,2.74,0,0,0-3.43,2.61,5.09,5.09,0,0,1-.33,1.27h5.22a31.16,31.16,0,0,0-2.6-8.1L191.35,27l6.53.6a33,33,0,0,1,6.32.9c3.54,1,4.78,3.75,5.15,7.22a2.79,2.79,0,0,0,2.71,2.71,2.73,2.73,0,0,0,2.71-2.71c-.53-5-2.24-9.53-7.13-11.69a25,25,0,0,0-7.76-1.68c-2.84-.27-5.68-.51-8.52-.77-2.23-.2-3.12,2.41-2.34,4.07a26.17,26.17,0,0,1,2.05,6.8c.48,2.86,4.42,2.27,5.22,0a10.69,10.69,0,0,0,.52-2.71l-3.43,2.61a6.31,6.31,0,0,0,6.45-2.11c1.7-2.34.19-4.81-1.92-6.15-2.95-1.88-5.67,2.81-2.73,4.68Z"/><path class="cls-1" d="M191.32,57q2-1.84,3.86-3.8c1.75-1.84,0-5.49-2.64-4.51A14.51,14.51,0,0,0,184.83,55c-1.48,2.48,1.38,4.81,3.7,3.7a31.7,31.7,0,0,0,10.18-7.55A8.44,8.44,0,0,0,201.25,45c-.06-1.1-.3-2.17-.3-3.28a35.56,35.56,0,0,1,.25-4,2.68,2.68,0,0,0-2.35-2.66,2.76,2.76,0,0,0-3,1.94l-3.72,9.23,5.22,1.44c2.27-5.74,6-13.38,2.71-19.38l-4.25,3.28a109.39,109.39,0,0,0,9.71,7.59c1.75,1.22,4-.42,4.07-2.34A12.93,12.93,0,0,0,201,24.56l-1.46,5.19c.46.15,5,1.72,5,1.64s-.53-.47-.39-.49l-.45.86c-.48.79-1,1.56-1.5,2.34l-6.32,9.85L200.87,46a43.14,43.14,0,0,1,.94-4.36,14.66,14.66,0,0,1,.6-2c.13-.3.53-.64.1-.48l-3.33-1.89c.92,2.3,0,5.17-.76,7.41-.83,2.55-1.93,5-3,7.47a2.73,2.73,0,0,0,1.89,3.33c2.39.48,4.38-.51,6.42-1.65a16,16,0,0,0,4.93-4c3-4,2.25-8.86,1-13.34-.57-2.15-3.89-2.77-4.95-.65a25,25,0,0,0-2.14,6.95c-.2,1.13-.37,2.28-.63,3.4a11.45,11.45,0,0,0-.28,1.13q-.39.64-.16.3,1,.07.21-.18v5.22c4-1.33,8-2.78,11.3-5.42a8.66,8.66,0,0,0,3.46-5,5.68,5.68,0,0,0-.35-3.4c-.42-1-1.17-1.65-1.62-2.59-1-2.15-4.4-1.5-4.95.65a17.77,17.77,0,0,1-2.22,5.17c-1.2,1.9-2,3.47-1.64,5.78.26,1.77,2.62,2.41,4,1.62,4.84-2.83,8.63-8,8.12-13.84-.53-6-5-9.58-9.84-12.43l-1.37,5a33.42,33.42,0,0,1,11.23,3,23.75,23.75,0,0,1,4.69,2.68c1.38,1.1,1.56,2.75,1.74,4.39A2.75,2.75,0,0,0,229,40.24a4.71,4.71,0,0,0,1.26-5.13,6.81,6.81,0,0,0-4.26-4c-4.07-1.68-7.66-4.16-12.25-3.51-2,.28-2.66,3.31-1.2,4.51.8.66,2.18,1.13,2.71,2a3.46,3.46,0,0,1,.09,3c-1.07,2.76-4,4.06-5.34,6.62a2.75,2.75,0,0,0,2.34,4.07c7.32.69,12.43-7.76,12.33-14.17L220.6,36c2.36,1.08,1.06,4-.23,5.42-2.41,2.69-5.54,4.46-7.72,7.39-1.53,2,1,4.43,3.06,4C222,51.49,225.11,45,229,40.59L224.81,40c-.3-.57.28-1-.28-.47a9.48,9.48,0,0,0-.6.75,16.58,16.58,0,0,1-1.56,1.56,15.15,15.15,0,0,1-3.57,2.23,2.73,2.73,0,0,0-1,3.7,2.77,2.77,0,0,0,3.7,1c3.79-1.78,10.45-6.6,7.94-11.48a2.72,2.72,0,0,0-4.25-.55c-1.81,2-3.31,4.26-5,6.34-1.57,1.9-3.42,4-5.93,4.51l3.06,4C220,48,224.5,46.29,226.44,42c1.66-3.67.9-8.81-3.11-10.64-1.81-.82-4.1.12-4.07,2.34,0,3.64-2.57,9.17-6.92,8.76l2.34,4.07c.82-1.6,2.6-2.67,3.72-4.09a11.25,11.25,0,0,0,2.48-5.11,8.91,8.91,0,0,0-.76-5.51,7,7,0,0,0-1.65-2.13c-.64-.55-1.47-.83-2.11-1.36l-1.2,4.51c2.27-.32,4.65,1.5,6.6,2.38a21.4,21.4,0,0,1,2.91,1.24,3.38,3.38,0,0,1,.47.39c-.4,0,.83-1.12,0-.45l4.62,1.91c-.28-2.58-.64-5.11-2.34-7.19A17.84,17.84,0,0,0,221.59,27a40.59,40.59,0,0,0-14.91-4.21c-2.77-.25-3.55,3.76-1.37,5,3.05,1.81,6.78,4,7.17,7.86s-2.23,7.18-5.45,9.06l4,1.62s.68-1,.82-1.2A22.9,22.9,0,0,0,213.1,43a23.85,23.85,0,0,0,1.76-4.69l-4.95.65c.42.88,1.68,1.67,1.17,2.61a8.08,8.08,0,0,1-2.92,2.49,36.84,36.84,0,0,1-7.82,3.31c-2.69.9-2.41,4.21,0,5.22,3.41,1.43,6.14-1.83,6.84-4.81s.84-6.41,2.27-9.29l-4.95-.65c.7,2.61,1.73,5.9.08,8.36a8.44,8.44,0,0,1-2.6,2.33c-.65.41-2.61,1.81-3.23,1.68l1.89,3.33a86.41,86.41,0,0,0,3.27-8.5c.84-2.86,1.59-6.4.44-9.27-.51-1.26-1.84-2.45-3.33-1.89-4.11,1.55-4.81,6.8-5.44,10.62-.49,2.95,3.21,4.8,4.95,2.09L205,39.72a63.66,63.66,0,0,0,3.84-6.07c1.07-2.17,1.07-4.78-.85-6.47-1.76-1.55-4.84-2-7-2.71-3.35-1.08-4.67,4-1.44,5.22a7.42,7.42,0,0,1,4.67,7.13l4.08-2.28a97,97,0,0,1-8.62-6.75,2.72,2.72,0,0,0-4.25,3.28c1.17,2.14.3,4.88-.32,7.06-.79,2.78-1.86,5.47-2.92,8.15A2.74,2.74,0,0,0,194,49.61a2.77,2.77,0,0,0,3.33-1.89l3.72-9.23-5.31-.72a27.41,27.41,0,0,0,0,6.38,4,4,0,0,1,0,1.92A6.38,6.38,0,0,1,194.22,48a28.25,28.25,0,0,1-8.42,6l3.7,3.7A8.63,8.63,0,0,1,194,53.92l-2.64-4.51q-1.87,2-3.86,3.8c-2.57,2.37,1.27,6.19,3.83,3.83Z"/><path class="cls-1" d="M175,64a62.17,62.17,0,0,0,13.44-3.37c4.29-1.57,8.5-3.35,12.88-4.68L199.28,51c-3.23,2.43-6.43,4.94-9.74,7.27-2.89,2-5.88,3.75-9.43,4.23l1.44,5.22a80.36,80.36,0,0,0,34.57-17.41l-4.62-1.91c-.23,1.74-3.72,2.8-5,3.38-2.43,1.11-4.9,2.55-7.55,3l1.44,5.22c3.31-1.28,6.57-2.68,9.75-4.25q2.23-1.1,4.41-2.29c1.44-.79,3.08-1.73,3.31-3.52A2.8,2.8,0,0,0,216,46.68c-1.26-.35-3.13.43-3.33,1.89q.87-.76.13-.25l-1,.54-1.95,1q-1.71.9-3.46,1.73-3.67,1.76-7.47,3.22a2.71,2.71,0,0,0,1.44,5.22c3.57-.63,7.08-2.73,10.35-4.25s5.69-3.68,6.18-7.37c.33-2.56-3.06-3.25-4.62-1.91a74.67,74.67,0,0,1-32.19,16,2.74,2.74,0,0,0-1.89,3.33,2.78,2.78,0,0,0,3.33,1.89,24.14,24.14,0,0,0,10.31-4.49c3.47-2.41,6.78-5,10.15-7.56a2.75,2.75,0,0,0,1.11-3.38,2.71,2.71,0,0,0-3.2-1.57c-8.32,2.52-16.14,6.74-24.86,7.86a2.8,2.8,0,0,0-2.71,2.71C172.34,62.66,173.59,64.23,175,64Z"/><path class="cls-1" d="M126.51,70.16c7.64,4.88,17.64,1.87,25.85.36q7-1.29,14-2.76,3.34-.7,6.68-1.45l3.48-.79,1.74-.4.87-.2q1-.21.22-.09l-1.2-.69.22.25-.79-1.91,0,.4.37-1.37a6,6,0,0,1-1.58.49c-.9.25-1.81.47-2.72.69q-2.83.7-5.68,1.34-5.54,1.24-11.15,2.22A171.36,171.36,0,0,1,134,68.58c-3.47.12-3.49,5.54,0,5.42a200.68,200.68,0,0,0,42.72-6.5,13.81,13.81,0,0,0,4.3-1.6c1.76-1.18,2.68-3.58,1.11-5.33-1.14-1.26-2.67-1.25-4.21-.92-1.84.39-3.66.86-5.5,1.27q-10.73,2.41-21.54,4.41c-3.91.72-7.87,1.59-11.83,2-3.44.32-6.87.13-9.85-1.77s-5.66,2.8-2.73,4.68Z"/><path class="cls-1" d="M133.34,74.82c8.77,1.1,17.75-1,26.32-2.71q6.44-1.28,12.84-2.77c4.09-1,8.38-1.73,12.08-3.8,3-1.7.32-6.38-2.73-4.68-3.42,1.9-7.58,2.51-11.36,3.38q-6.11,1.42-12.27,2.64c-8.12,1.61-16.55,3.55-24.88,2.51-1.45-.18-2.71,1.37-2.71,2.71a2.77,2.77,0,0,0,2.71,2.71Z"/><path class="cls-1" d="M90.92,59.8a12.22,12.22,0,0,0,7.49,8,52.79,52.79,0,0,0,12.1,3.08c8.62,1.2,17.4.13,26,1.5a2.79,2.79,0,0,0,3.33-1.89,2.73,2.73,0,0,0-1.89-3.33c-7.91-1.26-15.9-.6-23.85-1.28A58.38,58.38,0,0,1,103,63.6c-3-.87-5.89-1.94-6.87-5.23S89.9,56.45,90.92,59.8Z"/><path class="cls-1" d="M92,66.27c2.21,3.06,5.37,4.69,8.92,5.77a74,74,0,0,0,12.68,2.73,76.27,76.27,0,0,0,13.34,0q6.85-.4,13.69-.83c3.46-.21,3.49-5.63,0-5.42l-12.23.75a103.09,103.09,0,0,1-12.49.3,61.1,61.1,0,0,1-11.61-2.2c-2.64-.69-5.92-1.48-7.61-3.82a2.79,2.79,0,0,0-3.7-1,2.73,2.73,0,0,0-1,3.7Z"/><path class="cls-1" d="M91.94,70.67c3.1,2.39,7,2.71,10.75,3.26,4.21.6,8.37,1.54,12.58,2.14a51.65,51.65,0,0,0,13,.3q6.77-.73,13.56-1.5a2.79,2.79,0,0,0,2.71-2.71,2.73,2.73,0,0,0-2.71-2.71c-8.32.92-16.8,2.53-25.16,1.37-4-.56-7.95-1.44-11.94-2-3.43-.52-7.16-.6-10-2.79-1.16-.9-3-.18-3.7,1a2.77,2.77,0,0,0,1,3.7Z"/><path class="cls-1" d="M81.12,50.29c-3.27.86-5.19,4.37-5.89,7.46-.77,3.36-.54,7,2.43,9.24a22.63,22.63,0,0,0,8.92,3.82c3.1.6,7.25,1.22,9.84-1a2.73,2.73,0,0,0,0-3.82c-1.67-1.74-3.85-2.26-6-3.07s-3.4-2.44-5.1-3.74c-1.87-1.44-5-3-6.74-.57-1.92,2.7,1,5.49,3.51,6.13,3.37.85,4.8-4.36,1.44-5.2-1.05-.26-.06-.32-.13.71l-.79,1.9.18-.21-1.2.69.28-.05H80.42c2.23.48,3.9,3.05,5.77,4.25s4.82,1.28,6.42,2.94V66c.48-.4-.3-.15-.6-.14q-.75,0-1.5,0a17,17,0,0,1-3-.38,19.08,19.08,0,0,1-5.6-2.17c-.58-.34-1.32-.64-1.58-1.29a5.11,5.11,0,0,1,0-2.37c.19-1.2.88-3.82,2.22-4.17,3.35-.9,1.93-6.09-1.44-5.2Z"/><path class="cls-1" d="M77.24,64.57c.28,1.5,0,2.92.86,4.31,1,1.62,2.86,2.13,4.59,2.59q5.78,1.54,11.57,3c7.65,2,15.4,4,23.33,2.52a2.73,2.73,0,0,0,1.89-3.33,2.78,2.78,0,0,0-3.33-1.89c-6.49,1.17-13.07-.62-19.32-2.23q-4.82-1.24-9.6-2.51l-2.54-.67c-.46-.12-1.79-.74-2.21-.6-.23.08.23,0,.22.27a4.74,4.74,0,0,1,0-.53,8,8,0,0,0-.22-2.41,2.73,2.73,0,0,0-3.33-1.89,2.77,2.77,0,0,0-1.89,3.33Z"/><path class="cls-1" d="M109.19,38s0,.13,0,.15,0,0,0,0a3,3,0,0,0,.48-.27l-1.23-1.23a1.9,1.9,0,0,0-.19.8.9.9,0,0,0,0,.26q0,.3.18-.13,0-.23.21-.23s-.38,0-.45-.07a.85.85,0,0,1-.3-.2.93.93,0,0,0-1.23-.32.91.91,0,0,0-.32,1.23,2.71,2.71,0,0,0,2.29,1.16,1.43,1.43,0,0,0,1.2-.62,1.48,1.48,0,0,0,.19-.72v-.21c0-.16,0-.3-.07,0a.91.91,0,0,0-1.23-1.23,2.48,2.48,0,0,0-1.18,1,1.59,1.59,0,0,0,0,1.62.92.92,0,0,0,1.23.32.9.9,0,0,0,.32-1.23Z"/><path class="cls-1" d="M188.08,22c.2-1,1-.49.61-.54h-.14a1.47,1.47,0,0,0-.48,0,1.1,1.1,0,0,0-.77,1.3,2.89,2.89,0,0,0,1.6,1.75.94.94,0,0,0,1.25-.33.92.92,0,0,0-.33-1.25l-.33-.17c-.11-.06-.1-.07,0,0l-.14-.12-.13-.14,0,0-.1-.16q-.12-.24,0,.16l-.12.46a.63.63,0,0,1-.49.32h.36a1.07,1.07,0,0,0,1-.8.91.91,0,0,0-1.76-.49Z"/></g><g id="lights"><ellipse class="cls-4" cx="120.28" cy="48.04" rx="2.01" ry="3.01" transform="translate(64.19 164.78) rotate(-86.11)"/><ellipse class="cls-4" cx="181.89" cy="37.09" rx="3.01" ry="2.01" transform="translate(0.66 77.28) rotate(-24.03)"/><ellipse class="cls-4" cx="162.77" cy="43.68" rx="3.01" ry="2.01" transform="translate(-5.72 47.32) rotate(-16.26)"/><ellipse class="cls-4" cx="141.64" cy="47.91" rx="3.01" ry="2.01" transform="translate(-3.1 10.4) rotate(-4.16)"/></g></g><path class="cls-5" d="M9.78,116.37a7.12,7.12,0,0,1-1.14,4.48,4.17,4.17,0,0,1-3.45,1.41A4.26,4.26,0,0,1,1.83,121Q.75,119.83.75,116.69V100.08q0-4.71,4.44-4.71a5.71,5.71,0,0,1,3.44.86q1.16.86,1.16,3.49Z"/><path class="cls-5" d="M40,118.53a3.65,3.65,0,0,1-1,2.73,4.09,4.09,0,0,1-3,1,4.52,4.52,0,0,1-1-.12,4.2,4.2,0,0,1-1.08-.43q-.57-.31-1-.59a9.25,9.25,0,0,1-1.08-.84l-1-.9q-.37-.33-1.16-1.08l-1.14-1.1-7.18-6.79v8.52a3.66,3.66,0,0,1-.73,2.63,3.2,3.2,0,0,1-2.3.71,3.59,3.59,0,0,1-2.55-.79,3.52,3.52,0,0,1-.82-2.63v-19a4.58,4.58,0,0,1,1.14-3.38,4.41,4.41,0,0,1,3.26-1.14,5.16,5.16,0,0,1,2.34.45,9.46,9.46,0,0,1,2.1,1.63l9.93,9.89V98.78a3.44,3.44,0,0,1,.84-2.53,3.1,3.1,0,0,1,2.3-.84,3.24,3.24,0,0,1,2.43.79A3.63,3.63,0,0,1,40,98.75Z"/><path class="cls-5" d="M60.54,116.37a9.41,9.41,0,0,1-.55,3.55,3.47,3.47,0,0,1-1.51,1.83,5.41,5.41,0,0,1-2.53.51A4.15,4.15,0,0,1,52.59,121q-1-1.24-1.08-4.38l-.08-14.49H48.1a7,7,0,0,1-3.71-.79,3,3,0,0,1-1.24-2.79,3.32,3.32,0,0,1,.49-1.92,2.64,2.64,0,0,1,1.47-1,9.46,9.46,0,0,1,2.63-.29h16.8a5.11,5.11,0,0,1,3.18.79,3.29,3.29,0,0,1,1,2.71,3.21,3.21,0,0,1-.57,2,2.89,2.89,0,0,1-1.51,1,8.89,8.89,0,0,1-2.43.27H60.54Z"/><path class="cls-5" d="M88.65,106.32a4.83,4.83,0,0,1,2.92.67,2.74,2.74,0,0,1,.84,2.28,2,2,0,0,1-1,1.9,6.55,6.55,0,0,1-3.12.57H81.94v4.16l8.52,0a5.84,5.84,0,0,1,3.16.65,2.57,2.57,0,0,1,1,2.3,2.93,2.93,0,0,1-1.12,2.63,6.19,6.19,0,0,1-3.4.75H77.34a4.28,4.28,0,0,1-3.4-1.24q-1.08-1.24-1.08-4.38V100.08q0-4.71,4.48-4.71H90.06a6.47,6.47,0,0,1,3.4.71,3.49,3.49,0,0,1,.16,5,5.57,5.57,0,0,1-3.16.69H81.9v4.59Z"/><path class="cls-5" d="M108,116.37q0,5.89-4.59,5.89A4.28,4.28,0,0,1,100,121q-1.08-1.24-1.08-4.38V100.08a4.62,4.62,0,0,1,1.24-3.47,4.46,4.46,0,0,1,3.24-1.2h8.24a12.61,12.61,0,0,1,7.81,2.26,7.54,7.54,0,0,1,1.86,10,6.51,6.51,0,0,1-3.59,2.22,5.23,5.23,0,0,1,3.49,1.83,6,6,0,0,1,1.61,4.26,12.55,12.55,0,0,1-.49,4,3.15,3.15,0,0,1-1.39,1.86,5.62,5.62,0,0,1-2.55.47,5,5,0,0,1-3.4-1,3.72,3.72,0,0,1-1.08-2.92,11.62,11.62,0,0,0-.47-3.75,2.94,2.94,0,0,0-1.22-1.71,4.53,4.53,0,0,0-2.08-.39l-2.16,0Zm6-13.19a2.65,2.65,0,0,0-1.37-2.59,10.91,10.91,0,0,0-4.63-.71v6.79a10.25,10.25,0,0,0,4.53-.77A2.8,2.8,0,0,0,114,103.18Z"/><path class="cls-5" d="M138.23,95.09a15.57,15.57,0,0,1,8,1.92q3.3,1.92,3.3,4.08a1.87,1.87,0,0,1-.25,1,1.51,1.51,0,0,1-.63.59,1.86,1.86,0,0,1-.8.18,5.31,5.31,0,0,1-2.12-.73q-1.41-.73-3.14-1.45a8.28,8.28,0,0,0-3.18-.73q-2.32,0-2.32,1.88a1.91,1.91,0,0,0,.37,1.12,4.75,4.75,0,0,0,1.2,1.1,18.63,18.63,0,0,0,1.61,1l2.16,1.16q1.37.73,2.32,1.28a14.5,14.5,0,0,1,4.24,3.3,5.74,5.74,0,0,1,1.22,3.61q0,8.13-11,8.13a20,20,0,0,1-4.18-.43A16.43,16.43,0,0,1,131.5,121a15.26,15.26,0,0,1-2.67-1.57,7.15,7.15,0,0,1-1.75-1.77,3.13,3.13,0,0,1-.59-1.69,2.08,2.08,0,0,1,.57-1.47,2.18,2.18,0,0,1,1.67-.61,18.29,18.29,0,0,1,4,1,17,17,0,0,0,5.06,1q1.77,0,1.77-1.22a1.51,1.51,0,0,0-.14-.65,1.87,1.87,0,0,0-.47-.59,5.56,5.56,0,0,0-.75-.55q-.41-.25-1.14-.65l-1.45-.79-1.9-1q-1.18-.63-2.28-1.26a9.25,9.25,0,0,1-2.49-2,8.6,8.6,0,0,1-1.51-2.41,6.08,6.08,0,0,1-.47-2.22,6.33,6.33,0,0,1,2.94-5.38Q132.82,95.09,138.23,95.09Z"/><path class="cls-5" d="M169.37,116.37a9.41,9.41,0,0,1-.55,3.55,3.46,3.46,0,0,1-1.51,1.83,5.41,5.41,0,0,1-2.53.51,4.15,4.15,0,0,1-3.36-1.24q-1-1.24-1.08-4.38l-.08-14.49h-3.34a7,7,0,0,1-3.71-.79A3,3,0,0,1,152,98.59a3.32,3.32,0,0,1,.49-1.92,2.64,2.64,0,0,1,1.47-1,9.45,9.45,0,0,1,2.63-.29h16.8a5.11,5.11,0,0,1,3.18.79,3.29,3.29,0,0,1,1,2.71,3.21,3.21,0,0,1-.57,2,2.89,2.89,0,0,1-1.51,1,8.89,8.89,0,0,1-2.43.27h-3.65Z"/><path class="cls-5" d="M197.48,106.32a4.84,4.84,0,0,1,2.92.67,2.74,2.74,0,0,1,.84,2.28,2,2,0,0,1-1,1.9,6.55,6.55,0,0,1-3.12.57h-6.36v4.16l8.52,0a5.84,5.84,0,0,1,3.16.65,2.57,2.57,0,0,1,1,2.3,2.93,2.93,0,0,1-1.12,2.63,6.19,6.19,0,0,1-3.4.75H186.17a4.28,4.28,0,0,1-3.4-1.24q-1.08-1.24-1.08-4.38V100.08q0-4.71,4.48-4.71h12.72a6.47,6.47,0,0,1,3.4.71,3.49,3.49,0,0,1,.16,5,5.57,5.57,0,0,1-3.16.69h-8.56v4.59Z"/><path class="cls-5" d="M212.9,122.26a7.09,7.09,0,0,1-2.91-.57,3.41,3.41,0,0,1-1.65-1.75,8,8,0,0,1-.55-3.26V100.08a4.8,4.8,0,0,1,1.22-3.4,4.18,4.18,0,0,1,3.22-1.31,5.68,5.68,0,0,1,3.47.86q1.12.86,1.12,3.49v15.74h6.71a5.68,5.68,0,0,1,3.2.67q.92.67.92,2.75t-1.06,2.75a7.1,7.1,0,0,1-3.46.63Z"/><path class="cls-5" d="M236.77,122.26a7.09,7.09,0,0,1-2.91-.57,3.41,3.41,0,0,1-1.65-1.75,8,8,0,0,1-.55-3.26V100.08a4.8,4.8,0,0,1,1.22-3.4,4.18,4.18,0,0,1,3.22-1.31,5.68,5.68,0,0,1,3.47.86q1.12.86,1.12,3.49v15.74h6.71a5.68,5.68,0,0,1,3.2.67q.92.67.92,2.75t-1.06,2.75a7.1,7.1,0,0,1-3.46.63Z"/><path class="cls-5" d="M270.38,116.29h-6.52v2.08a3.75,3.75,0,0,1-1.06,2.94,5.51,5.51,0,0,1-3.65.94,4.46,4.46,0,0,1-1.81-.31,3,3,0,0,1-1.24-1.06,5.45,5.45,0,0,1-.79-2.18,32.82,32.82,0,0,1-.39-3.46q-.14-2-.14-5.12a20.28,20.28,0,0,1,.57-5,13.71,13.71,0,0,1,1.53-3.83,14.48,14.48,0,0,1,2.18-2.77,9.47,9.47,0,0,1,2.65-1.86,15.34,15.34,0,0,1,2.79-1,11.38,11.38,0,0,1,2.73-.33,12,12,0,0,1,3.26.45,11.54,11.54,0,0,1,3.26,1.55,11.89,11.89,0,0,1,2.88,2.73,13.35,13.35,0,0,1,2,4.22,20,20,0,0,1,.79,5.81,57.08,57.08,0,0,1-.37,7.67,6.8,6.8,0,0,1-1.26,3.47,3.49,3.49,0,0,1-2.73,1,5.51,5.51,0,0,1-3.65-.94,3.74,3.74,0,0,1-1.06-2.94Zm-3.22-14.53a3,3,0,0,0-2.49,1,5.66,5.66,0,0,0-.8,3.49v4.63h6.52v-4.71a7.4,7.4,0,0,0-.39-2.65,2.53,2.53,0,0,0-1.08-1.37A3.64,3.64,0,0,0,267.16,101.77Z"/><path class="cls-5" d="M292.48,116.37q0,5.89-4.59,5.89a4.27,4.27,0,0,1-3.4-1.24q-1.08-1.24-1.08-4.38V100.08a4.62,4.62,0,0,1,1.24-3.47,4.46,4.46,0,0,1,3.24-1.2h8.24a12.61,12.61,0,0,1,7.81,2.26,7.55,7.55,0,0,1,1.87,10,6.51,6.51,0,0,1-3.59,2.22,5.23,5.23,0,0,1,3.49,1.83,6,6,0,0,1,1.61,4.26,12.56,12.56,0,0,1-.49,4,3.15,3.15,0,0,1-1.39,1.86,5.62,5.62,0,0,1-2.55.47,5,5,0,0,1-3.4-1,3.72,3.72,0,0,1-1.08-2.92,11.6,11.6,0,0,0-.47-3.75,2.94,2.94,0,0,0-1.22-1.71,4.53,4.53,0,0,0-2.08-.39l-2.16,0Zm6-13.19a2.65,2.65,0,0,0-1.37-2.59,10.91,10.91,0,0,0-4.63-.71v6.79a10.25,10.25,0,0,0,4.54-.77A2.8,2.8,0,0,0,298.49,103.18Z"/><path class="cls-5" d="M66,153.18q0,5.89-4.59,5.89a4.28,4.28,0,0,1-3.4-1.24q-1.08-1.24-1.08-4.38V136.89a4.62,4.62,0,0,1,1.24-3.47,4.46,4.46,0,0,1,3.24-1.2h8.24a12.61,12.61,0,0,1,7.81,2.26,7.54,7.54,0,0,1,1.86,10,6.51,6.51,0,0,1-3.59,2.22,5.23,5.23,0,0,1,3.49,1.83,6,6,0,0,1,1.61,4.26,12.55,12.55,0,0,1-.49,4A3.15,3.15,0,0,1,79,158.6a5.62,5.62,0,0,1-2.55.47,5,5,0,0,1-3.4-1,3.72,3.72,0,0,1-1.08-2.92,11.62,11.62,0,0,0-.47-3.75,2.94,2.94,0,0,0-1.22-1.71,4.53,4.53,0,0,0-2.08-.39l-2.16,0ZM72,140a2.65,2.65,0,0,0-1.37-2.59,10.91,10.91,0,0,0-4.63-.71v6.79a10.25,10.25,0,0,0,4.53-.77A2.8,2.8,0,0,0,72,140Z"/><path class="cls-5" d="M101.33,143.13a4.83,4.83,0,0,1,2.92.67,2.74,2.74,0,0,1,.84,2.28,2,2,0,0,1-1,1.9,6.55,6.55,0,0,1-3.12.57H94.62v4.16l8.52,0a5.84,5.84,0,0,1,3.16.65,2.57,2.57,0,0,1,1,2.3,2.93,2.93,0,0,1-1.12,2.63,6.19,6.19,0,0,1-3.4.75H90a4.28,4.28,0,0,1-3.4-1.24q-1.08-1.24-1.08-4.38V136.89q0-4.71,4.48-4.71h12.72a6.47,6.47,0,0,1,3.4.71,3.49,3.49,0,0,1,.16,5,5.57,5.57,0,0,1-3.16.69H94.58v4.59Z"/><path class="cls-5" d="M126.18,139.55a1.8,1.8,0,0,0-.69-1.41,2.42,2.42,0,0,0-1.63-.59,3.56,3.56,0,0,0-3.1,2.14,9.63,9.63,0,0,0-1.22,4.85,8.69,8.69,0,0,0,.79,3.75,6.32,6.32,0,0,0,2.28,2.65,6.14,6.14,0,0,0,3.45,1,7,7,0,0,0,2.79-.57A8.68,8.68,0,0,0,131,150.1a17.44,17.44,0,0,1,1.71-1.26,3,3,0,0,1,1.55-.57,2,2,0,0,1,1.49.69,2.12,2.12,0,0,1,.63,1.43,4.85,4.85,0,0,1-.49,1.92,9.88,9.88,0,0,1-1.55,2.34,14.76,14.76,0,0,1-2.47,2.28,12.37,12.37,0,0,1-3.51,1.73,14.13,14.13,0,0,1-4.42.69,16.91,16.91,0,0,1-5.67-.92,13.52,13.52,0,0,1-4.53-2.63,11.81,11.81,0,0,1-3-4.3,14.74,14.74,0,0,1-1.1-5.81q0-6.36,3.81-10.05a13.73,13.73,0,0,1,10-3.69A15.61,15.61,0,0,1,129.2,133a10.36,10.36,0,0,1,4.24,2.94,6.3,6.3,0,0,1,1.57,4.12,7.2,7.2,0,0,1-1.73,4.69,5.53,5.53,0,0,1-4.48,2.1A4.87,4.87,0,0,1,126,146a2.82,2.82,0,0,1-1.26-2.47,4.84,4.84,0,0,1,.73-2.08A4.9,4.9,0,0,0,126.18,139.55Z"/><path class="cls-5" d="M161.08,157.75a16.39,16.39,0,0,1-13.92,0,11.86,11.86,0,0,1-4.93-4.65,14,14,0,0,1-1.85-7.3q0-6.36,3.83-10.11a15,15,0,0,1,19.85,0q3.85,3.75,3.85,10.11a13.91,13.91,0,0,1-1.86,7.3A12,12,0,0,1,161.08,157.75Zm-6.95-4.18a2.88,2.88,0,0,0,2.3-1.18,7.15,7.15,0,0,0,1.38-2.91,16.75,16.75,0,0,0,0-7.48,8,8,0,0,0-1.39-3,2.8,2.8,0,0,0-2.26-1.26,2.71,2.71,0,0,0-2.2,1.26,8.71,8.71,0,0,0-1.41,3.06,14.85,14.85,0,0,0-.47,3.77,14.55,14.55,0,0,0,.45,3.69,7.54,7.54,0,0,0,1.41,2.91A2.82,2.82,0,0,0,154.13,153.57Z"/><path class="cls-5" d="M181.38,153.18q0,5.89-4.59,5.89a4.27,4.27,0,0,1-3.4-1.24q-1.08-1.24-1.08-4.38V136.89a4.62,4.62,0,0,1,1.24-3.47,4.46,4.46,0,0,1,3.24-1.2H185a12.61,12.61,0,0,1,7.81,2.26,7.55,7.55,0,0,1,1.87,10,6.51,6.51,0,0,1-3.59,2.22,5.23,5.23,0,0,1,3.49,1.83,6,6,0,0,1,1.61,4.26,12.56,12.56,0,0,1-.49,4,3.15,3.15,0,0,1-1.39,1.86,5.62,5.62,0,0,1-2.55.47,5,5,0,0,1-3.4-1,3.72,3.72,0,0,1-1.08-2.92,11.6,11.6,0,0,0-.47-3.75,2.94,2.94,0,0,0-1.22-1.71,4.53,4.53,0,0,0-2.08-.39l-2.16,0Zm6-13.19A2.65,2.65,0,0,0,186,137.4a10.91,10.91,0,0,0-4.63-.71v6.79a10.25,10.25,0,0,0,4.54-.77A2.8,2.8,0,0,0,187.39,140Z"/><path class="cls-5" d="M211.14,132.21a13.67,13.67,0,0,1,9.83,3.53q3.71,3.53,3.71,9.74a20,20,0,0,1-.37,3.89,15.21,15.21,0,0,1-1.24,3.67,11.51,11.51,0,0,1-2.16,3.1,9.54,9.54,0,0,1-3.3,2.12,12,12,0,0,1-4.51.8h-7.73a4.3,4.3,0,0,1-3.44-1.22q-1-1.22-1-4.4V136.89q0-4.67,4.48-4.67ZM210,153.73a6.6,6.6,0,0,0,1.79-.22,4,4,0,0,0,1.45-.79,4.2,4.2,0,0,0,1.12-1.51,10,10,0,0,0,.69-2.41,20.64,20.64,0,0,0,.25-3.47,15.67,15.67,0,0,0-.39-3.79,5.36,5.36,0,0,0-1.14-2.36A4.3,4.3,0,0,0,212.1,138a6.68,6.68,0,0,0-2.14-.37Z"/><path class="cls-5" d="M238.93,131.9a15.57,15.57,0,0,1,8,1.92q3.3,1.92,3.3,4.08a1.87,1.87,0,0,1-.25,1,1.51,1.51,0,0,1-.63.59,1.86,1.86,0,0,1-.8.18,5.31,5.31,0,0,1-2.12-.73q-1.41-.73-3.14-1.45a8.28,8.28,0,0,0-3.18-.73q-2.32,0-2.32,1.88a1.91,1.91,0,0,0,.37,1.12,4.74,4.74,0,0,0,1.2,1.1,18.7,18.7,0,0,0,1.61,1l2.16,1.16q1.37.73,2.32,1.28a14.5,14.5,0,0,1,4.24,3.3,5.74,5.74,0,0,1,1.22,3.61q0,8.13-11,8.13a20,20,0,0,1-4.18-.43,16.47,16.47,0,0,1-3.53-1.14,15.25,15.25,0,0,1-2.67-1.57,7.14,7.14,0,0,1-1.75-1.77,3.13,3.13,0,0,1-.59-1.69,2.08,2.08,0,0,1,.57-1.47,2.17,2.17,0,0,1,1.67-.61,18.28,18.28,0,0,1,4,1,17.05,17.05,0,0,0,5.06,1q1.77,0,1.77-1.22a1.52,1.52,0,0,0-.14-.65,1.88,1.88,0,0,0-.47-.59,5.5,5.5,0,0,0-.75-.55q-.41-.25-1.14-.65l-1.45-.79-1.9-1q-1.18-.63-2.28-1.26a9.25,9.25,0,0,1-2.49-2,8.63,8.63,0,0,1-1.51-2.41,6.1,6.1,0,0,1-.47-2.22,6.33,6.33,0,0,1,2.94-5.38Q233.51,131.9,238.93,131.9Z"/></g></g></svg>