<svg xmlns="http://www.w3.org/2000/svg" viewBox="0 0 525.69 277.03"><defs><style>.cls-1{fill:#3fc;}.cls-2{fill:#f63;}.cls-3{fill:none;stroke:#3fc;stroke-miterlimit:10;}.cls-4{fill:#fffa18;}</style></defs><title>logo_2</title><g id="Layer_2" data-name="Layer 2"><g id="main_shapes"><path class="cls-1" d="M436.48,70.5c52.89,6.7,84.23,22.91,88.27,45.65s-19.82,48.74-67.16,73.24c-25.88,13.38-57.13,25.53-91.75,35.79,1-1.26,2-2.54,3-3.84a21.5,21.5,0,0,1-6.66.43l-.19-.66c35.27-10.32,67.08-22.59,93.3-36.15,44.58-23.07,68.11-47.82,64.54-67.93s-34.18-35.25-84-41.56a463.39,463.39,0,0,0-59.36-3.3,4.93,4.93,0,0,0-.46-1.81,9.59,9.59,0,0,0-2.31-3.18A474,474,0,0,1,436.48,70.5Z"/><path class="cls-1" d="M362.18,221.76a21.5,21.5,0,0,0,6.66-.43c-1,1.3-2,2.58-3,3.84-2.88.86-5.79,1.71-8.72,2.52C358.87,225.77,360.55,223.78,362.18,221.76Z"/><path class="cls-1" d="M362,221.1l.19.66c-1.63,2-3.31,4-5.06,5.94a815.44,815.44,0,0,1-79.5,18.14c-27.44,4.87-54.61,8.33-80.89,10.32q-2.77-1.46-5.46-3l-.11-1.58a803.79,803.79,0,0,0,85.58-10.62A808.38,808.38,0,0,0,362,221.1Z"/><path class="cls-1" d="M357.12,227.69c2.93-.82,5.84-1.67,8.72-2.52a137.61,137.61,0,0,1-178.21,31.61l.62,0q4.22-.26,8.47-.59a132.56,132.56,0,0,0,160.39-28.46Z"/><path class="cls-2" d="M357.12,227.69a132.56,132.56,0,0,1-160.39,28.46c26.28-2,53.45-5.45,80.89-10.32A815.44,815.44,0,0,0,357.12,227.69Z"/><path class="cls-1" d="M191.27,253.11q2.69,1.58,5.46,3-4.25.33-8.47.59l-.62,0c-1.29-.77-2.57-1.56-3.85-2.38A48.08,48.08,0,0,0,191.27,253.11Z"/><path class="cls-1" d="M191.16,251.53l.11,1.58a48.08,48.08,0,0,1-7.48,1.29c1.27.82,2.55,1.62,3.85,2.38-50.65,3.19-95,.65-128.33-7.34-35-8.38-55.17-22.32-58.36-40.31-4-22.73,19.82-48.74,67.16-73.24a473,473,0,0,1,58.63-25,21.76,21.76,0,0,0,.24,5.22A466.94,466.94,0,0,0,70.4,140.33C25.82,163.4,2.29,188.15,5.86,208.25c2.82,15.87,21.7,28.43,54.6,36.33s77.06,10.38,127.48,7.17Z"/><path class="cls-3" d="M187.63,256.78a137.61,137.61,0,0,0,178.21-31.61"/><path class="cls-3" d="M357.12,227.69a132.56,132.56,0,0,1-160.39,28.46"/><path class="cls-3" d="M365.84,225.17c34.62-10.26,65.87-22.41,91.75-35.79,47.35-24.49,71.2-50.5,67.16-73.24S489.37,77.2,436.48,70.5a474,474,0,0,0-62.77-3.33A9.59,9.59,0,0,1,376,70.35a4.93,4.93,0,0,1,.46,1.81,463.39,463.39,0,0,1,59.36,3.3c49.8,6.31,80.41,21.46,84,41.56s-20,44.86-64.54,67.93c-26.21,13.56-58,25.83-93.3,36.15a808.38,808.38,0,0,1-85.25,19.81,803.79,803.79,0,0,1-85.58,10.62l-3.22.22c-50.41,3.21-94.5.74-127.48-7.17S8.68,224.13,5.86,208.25c-3.57-20.11,20-44.86,64.54-67.93A466.94,466.94,0,0,1,127,116.09a21.76,21.76,0,0,1-.24-5.22,473,473,0,0,0-58.63,25C20.76,160.39-3.1,186.39.94,209.13c3.19,18,23.37,31.93,58.36,40.31,33.32,8,77.68,10.54,128.33,7.34l.62,0q4.22-.26,8.47-.59c26.28-2,53.45-5.45,80.89-10.32a815.44,815.44,0,0,0,79.5-18.14C360,226.88,363,226,365.84,225.17Z"/><path class="cls-1" d="M394.19,113.11s0,.07,0,.12a14.09,14.09,0,0,0-1.16-2.86,5.63,5.63,0,0,1-2.52,1.35,3.73,3.73,0,0,1-.78,1.53c-.15.17-.32.32-.47.48A133.14,133.14,0,0,0,235.32,7.56C163.4,20.33,115.18,89,127.46,160.88a16.14,16.14,0,0,1-1.15-7.79,18.08,18.08,0,0,1-.61-2.36c-3,4.64-3.58,8.63-3,11.83C109.42,87.67,159.54,15.93,234.44,2.64,308.94-10.59,380.31,38.9,394.19,113.11Z"/><path class="cls-1" d="M394.17,113.22c.11.41.2.8.27,1.19,1.39,7.84-3.69,20.4-35.82,35.76-24.15,11.54-57.21,21.41-93.06,27.77s-70.28,8.47-96.93,6c-35.45-3.37-44.55-13.41-45.94-21.25l0-.09c.12.23.23.47.36.7l.08.11c.54.78,1.07,1.56,1.58,2.35a9.67,9.67,0,0,1,.63,1.2c1.16.2,2.33.42,3.48.68-.43-1.92-.84-3.86-1.19-5.82,3,16.66,58.74,25.15,137.08,11.24S392.46,132,389.52,115.3q1,5.66,1.5,11.27a27.59,27.59,0,0,0,2-3.25A90.92,90.92,0,0,1,394.17,113.22Z"/><path class="cls-1" d="M393,110.36a14.09,14.09,0,0,1,1.16,2.86A90.92,90.92,0,0,0,393,123.32a27.59,27.59,0,0,1-2,3.25q-.51-5.61-1.5-11.27h0v0c-.09-.51-.18-1-.28-1.54.15-.16.32-.31.47-.48a3.73,3.73,0,0,0,.78-1.53A5.63,5.63,0,0,0,393,110.36Z"/><path class="cls-1" d="M389.23,113.72c.1.51.19,1,.28,1.54a8.24,8.24,0,0,0-.4-1.42Z"/><path class="cls-2" d="M389.52,115.27v0h0C392.46,132,343,159.12,264.69,173s-134.12,5.41-137.08-11.24v0c0-.22-.05-.46-.07-.68a1.55,1.55,0,0,1-.08-.2C115.18,89,163.4,20.33,235.32,7.56A133.14,133.14,0,0,1,389.23,113.72l-.12.12A8.24,8.24,0,0,1,389.52,115.27Z"/><path class="cls-1" d="M125.7,150.73a18.08,18.08,0,0,0,.61,2.36,16.14,16.14,0,0,0,1.15,7.79c0,.3.09.58.15.88v0c.35,2,.75,3.9,1.19,5.82-1.15-.26-2.32-.48-3.48-.68a9.67,9.67,0,0,0-.63-1.2c-.51-.79-1-1.57-1.58-2.35l-.08-.11c-.13-.23-.24-.47-.36-.7C122.13,159.36,122.68,155.37,125.7,150.73Z"/><path class="cls-1" d="M127.46,160.88a1.55,1.55,0,0,0,.08.2c0,.22,0,.46.07.68C127.56,161.46,127.51,161.18,127.46,160.88Z"/><path class="cls-3" d="M127.46,160.88C115.18,89,163.4,20.33,235.32,7.56A133.14,133.14,0,0,1,389.23,113.72"/><path class="cls-3" d="M394.17,113.22s0-.07,0-.12C380.31,38.9,308.94-10.59,234.44,2.64c-74.9,13.3-125,85-111.77,159.93"/><path class="cls-3" d="M394.17,113.22a14.09,14.09,0,0,0-1.16-2.86,5.63,5.63,0,0,1-2.52,1.35,3.73,3.73,0,0,1-.78,1.53c-.15.17-.32.32-.47.48l-.12.12a8.24,8.24,0,0,1,.4,1.42v0h0C392.46,132,343,159.12,264.69,173s-134.12,5.41-137.08-11.24v0c0-.22-.05-.46-.07-.68a1.55,1.55,0,0,1-.08-.2,16.14,16.14,0,0,1-1.15-7.79,18.08,18.08,0,0,1-.61-2.36c-3,4.64-3.58,8.63-3,11.83l0,.09c1.39,7.84,10.49,17.88,45.94,21.25,26.65,2.52,61.08.41,96.93-6s68.9-16.23,93.06-27.77c32.13-15.36,37.21-27.92,35.82-35.76C394.37,114,394.28,113.63,394.17,113.22Z"/><path class="cls-1" d="M83.4,177.4a58.78,58.78,0,0,0,19.13,16.83c1.69.93,3.21-1.66,1.51-2.59a55.38,55.38,0,0,1-18-15.76c-1.13-1.54-3.74,0-2.59,1.51Z"/><path class="cls-1" d="M66.18,191.74q16.07,8.91,32,18c6.14,3.51,13.21-1,13.54-7.77.34-6.92-4.68-10.55-7-16.42a21.75,21.75,0,0,1-.15-15.18c2.7-8.24-9.28-15.74-15-8.76-1.73,2.1-3.52,4.13-5.45,6.06-1.58,1.58-3.88,3-5.24,4.69l-1.3.75L81,174c.27,0,.31.95.55.82.75-.39,2.59-4.46,3.16-5.28l-16.45-2.15q.14-1-.27-.09l16.45,2.15c-.92-5.26.9-10,3.93-14.25,4.4-6.14-3-16-10.16-13.22-5.28,2.06-13.62,7.4-19.3,5.31l4,15a80,80,0,0,1,27.27-13.67L79,142.34a81.56,81.56,0,0,1-.38,24.2l17.68,2.39a26.65,26.65,0,0,0-1.19-11.56c-2.21-6.79-12.88-9.54-16.45-2.15l-1,2.07c-2.11,4.37-1.2,9.73,3.23,12.31,3.94,2.31,10.19,1.17,12.31-3.23l1-2.07-16.45-2.15a13.93,13.93,0,0,1,.55,6.77c-1.26,10,16,12.39,17.68,2.39a110.72,110.72,0,0,0,.38-33.77c-.66-4.79-6.88-7.49-11.07-6.29a102.72,102.72,0,0,0-35.21,18.3c-5.84,4.58-1.62,13,4,15,9.81,3.61,19.84-1.78,28.87-5.31L72.79,146.08c-5.94,8.29-7.47,18.23-5.74,28.12,1.37,7.8,12.87,8.5,16.45,2.15,2.53-4.5,3-8.74,2.08-13.78-1.45-8.34-12.46-7.83-16.45-2.15-6.31,9-8.83,22.87,2.9,28.93s23.49-6.81,30.23-15l-15-8.76A39.89,39.89,0,0,0,86.16,186a38.45,38.45,0,0,0,3.29,9.28,30.56,30.56,0,0,0,2.28,3.9q.65.95,1.36,1.86,1.42,2.12.66,1l13.54-7.77q-16-9.12-32-18c-10.14-5.62-19.23,9.92-9.08,15.54Z"/><path class="cls-1" d="M76.55,154.32a135.43,135.43,0,0,1-13.76,15.19c-2.48,2.34-5.06,4.61-7.74,6.73q-1.44,1.15-2.93,2.23-1,.76-2.08,1.49-2.88,1.55.11.72l4.54,1.23-.85-.47,3.23,3.23-.43-.89,1.23,4.54c0-2.28,3.6-7.66,5.56-10.12a35.87,35.87,0,0,1,10.21-8.63L61.31,157.26a13.07,13.07,0,0,1-4.49,4.84c-1.23.85-5.2,2-6,3.1-.89,1.27.08-3.51.09,1.28a1.45,1.45,0,0,1,.32,2.09l.11-.37c-.5-.14,3.6-1.6,2.67-1.32a28.37,28.37,0,0,1,3.81-.73c6.36-1,12.68-1.85,19-3.32q4.42-1,8.78-2.31,2.61-.77,5.2-1.62l1.72-.58q3.26-.75.36-.71l-5.38-4.14c1.87,2.5,1.82,8.34,2.39,11.48q1.19,6.47,2.31,12.95c1,5.79,4.53,14.41-2.24,17.58-5.36,2.51-13.72,4.08-19.54,3a8.29,8.29,0,0,1-5.84-3.64c-.3-.47,0-.65-.06-1.07a1.31,1.31,0,0,1,.36-.51q-2.06.19.35.21L57.48,189q-.1-2.5-.75-1.06-.76,1.21-1.62,2.35a30.69,30.69,0,0,0-2.9,4.85c-2.32,5.1-1.81,11.31,3.29,14.56,8,5.07,20.69-1,27.58-5.58,7.12-4.78,4.83-16.89-4.54-16.77l-19.5.25v18l10.13-.17-4.54-16.77c-6,4.21-13.18,2.59-19.61-.1a35.75,35.75,0,0,1-5.4-2.75c-1.93-1.24-1.26-1.36-1.34-.39.13-1.58,2.12-4.1,2.85-5.52l3.22-6.3L27.9,171.45c-.47-2.91.12-1.13-.55-.36a12,12,0,0,0-1.62,3.77A14.67,14.67,0,0,0,25,183.2c1.77,7.21,8.4,9.7,15,10.51,12.71,1.55,25.15-2,36.46-7.64a138.85,138.85,0,0,0,31.4-22c10.07-9.27,16-21,14.09-34.77-.67-5-6.86-7.25-11.07-6.29l-20.14,4.61c-11.29,2.58-6.51,19.94,4.79,17.36l20.14-4.61L104.62,134c.92,6.78-5,13.11-9.47,17.26a130.25,130.25,0,0,1-17.38,13.24c-10.58,6.86-26.89,15.66-39.83,10.32l4,2.31c4.15,3.43-.63,5.37,1,3a20.21,20.21,0,0,0,1.87-4.35,17.65,17.65,0,0,0,.5-9.16C44,159,32.15,158,28.8,164.51s-8.92,14.12-8.7,21.63c.23,7.91,6.49,13.29,13,16.62,12.41,6.31,28.26,10,40.57,1.43,7-4.84,5-16.93-4.54-16.77L59,187.59c-11.57.19-11.61,18.15,0,18l19.5-.25L74,188.57c-3.76,2.52-8.23,4.92-12.86,4.95l4.54,1.23-1.1-.59,4.14,5.38-.31-1.08v4.79c.69-3.28,4.21-6.3,5.45-9.64A16.45,16.45,0,0,0,73,179.91c-1.4-2.91-4.75-4.28-7.77-4.46-10.07-.58-18.55,8.33-18.81,18.19-.26,10,7.32,18.06,16.31,21.33,9.16,3.33,20.41,1.6,29.52-1.2,9-2.74,17.18-8.55,19.13-18.25,2-10.12-1.65-21.67-3.46-31.63-1.7-9.41-2.31-26.31-16.11-24-4.9.81-9.69,3-14.51,4.29-5.26,1.42-10.6,2.57-16,3.46-9.75,1.61-20.22,2.23-25.62,11.88-6,10.78,1.89,23.13,13.82,23.69,10.47.49,22.52-7.83,27.31-16.83,4.15-7.8-4.31-17-12.31-12.31A54.22,54.22,0,0,0,45.89,172c-4.45,7.07-10.39,19.66-.72,25.26,8.79,5.09,18.34-4.65,24.59-9.88A133.48,133.48,0,0,0,89.27,167c3-3.83,3.73-9,0-12.73-3.11-3.11-9.72-3.85-12.73,0Z"/><path class="cls-1" d="M85.71,169.58a132.2,132.2,0,0,0,25.43,44.57c4.13,4.79,14.07,2.62,15-4,1.54-10.4,1.25-20.84-2.05-30.91-1.62-4.94-4.23-9.37-6.18-14.15-.55-1.35-2.44-5.65-.63-6.76l-13.54-7.77c.64,12.43,1.5,25.56,8,36.52,6.12,10.3,16.15,17.26,28.19,18,6.74.44,11.31-8,7.77-13.54A86.34,86.34,0,0,0,103,156.4c-4.4-1.54-10.11,1.76-11.07,6.29-2.76,13,4.95,24,16.13,30,11.47,6.13,24.24,10.39,36.24,15.38l-6.61-8.68c0-8.13,3.27-3,1-3.3a15.64,15.64,0,0,0-3.29.54c-3.24.44-6.49.77-9.75,1.09q-9.27.92-18.58,1.4c-12.74.66-25.49.67-38.23.13-10-.43-12.42,15.63-2.39,17.68a570.58,570.58,0,0,0,95.3,11.34q23.65.78,47.3-.47,11.57-.61,23.11-1.71c8.31-.79,15.4-1.19,20.74-8.34,4.23-5.67-1.54-13.53-7.77-13.54a704.85,704.85,0,0,1-105.51-8.07v17.36q33.42-4.85,67-8.78c11.58-1.36,11.54-16.57,0-18l-88.47-10.93,4.54,16.77c7.8-3.44,18.77,1.82,26.34,3.75a272.29,272.29,0,0,0,32.44,5.81c22,2.87,44.39,5.9,66.6,4.8l-2.39-17.68a462.2,462.2,0,0,1-52.77,3.94c-11.7.23-11.45,17.14,0,18a347.7,347.7,0,0,0,104.7-8.21l-4.79-17.36c-28.45,9.17-58,13.7-87.62,17.25-4.45.53-8.27,3-8.84,7.8-.48,4,2,9.17,6.45,9.87a248.74,248.74,0,0,0,139.08-17.88c8.55-3.74,3.75-16.73-4.54-16.77l-143.57-.75c-11.58-.06-11.6,17.94,0,18l143.57.75-4.54-16.77a226.69,226.69,0,0,1-125.21,16.06l-2.39,17.68c31.19-3.74,62.42-8.23,92.41-17.89,11-3.55,6.54-20-4.79-17.36a331.09,331.09,0,0,1-99.92,7.56v18a503.46,503.46,0,0,0,57.56-4.58c10-1.36,7.65-18.18-2.39-17.68-23.22,1.15-46.94-1.93-69.89-5.26A255.4,255.4,0,0,1,146,176.76c-11.09-3.1-21.59-4.55-32.41.21-3.58,1.58-5.1,6.65-4.14,10.16,1.14,4.13,4.69,6.11,8.68,6.61l88.47,10.93v-18q-35.94,4.21-71.75,9.42c-8.62,1.25-8.57,16,0,17.36a736.5,736.5,0,0,0,110.29,8.72l-7.77-13.54-.8,1.07,3.23-3.23c-2.11,1.62-5,1.34-7.63,1.58q-5.29.51-10.58.91-10.59.8-21.21,1.2-21.71.8-43.44-.1a540.16,540.16,0,0,1-85.69-10.51l-2.39,17.68a402.28,402.28,0,0,0,50-.91c7.88-.64,16.34-.93,24.05-2.74,7-1.65,12.87-6.58,12.85-14.21,0-4.38-2.87-7.12-6.61-8.68-8.81-3.67-17.66-7.25-26.44-11-4.38-1.88-14.74-5.75-13.37-12.19l-11.07,6.29A66.44,66.44,0,0,1,132.2,200.7L140,187.16c-16.47-1.08-17.59-24.77-18.2-36.57-.34-6.58-7.46-11.52-13.54-7.77-11.06,6.83-11,19.86-6.18,30.58,4.67,10.49,8.52,20.22,6.78,32l15-4a109.46,109.46,0,0,1-20.8-36.63c-3.67-10.93-21.06-6.24-17.36,4.79Z"/><path class="cls-1" d="M224.09,203l103.66-11.12c4.83-.52,9-3.77,9-9,0-4.49-4.13-9.49-9-9l-124,12.44v18L372.46,187l-6.36-15.36c-15.24,13.5-35.24,20.44-55.19,23.07A211,211,0,0,1,277.07,196c-4.76-.14-9.76,0-14.43-.92a15.88,15.88,0,0,1-4.27-1.27c-1.58-.85-1.5-2.24-1.18.12l-4.46,7.77c8.14-3.71,17.13-5.36,25.83-7.22l28.91-6.19,57.82-12.39c11.32-2.42,6.53-19.78-4.79-17.36l-59.75,12.8c-19.05,4.08-39.27,6.69-57.11,14.82-2.53,1.15-4.83,5-4.46,7.77,1.71,12.86,12.28,18,24.17,19.34a210.52,210.52,0,0,0,41.95,0c26.9-2.45,53-10.79,73.53-28.94,5.55-4.91,1.39-16.16-6.36-15.36L203.79,186.35c-4.83.5-9,3.78-9,9,0,4.49,4.13,9.49,9,9l124-12.44v-18L224.09,185c-4.83.52-9,3.77-9,9,0,4.46,4.14,9.52,9,9Z"/><path class="cls-1" d="M324.85,188.58a341.34,341.34,0,0,0,41.51-9.89c13.18-4,27.53-8,38.52-16.62,7.38-5.75-.7-17.3-8.76-15L347.7,160.58c-7.61,2.13-15.2,4.37-22.9,6.12s-15.5,2.28-23.49,2.84c-16.21,1.15-32.35,6-48.28,9.1q-12.5,2.45-25,4.69-5.79,1-11.58,2c-1.37.23-4.61.14-5.8,1-1.64,1.16-2.6-2.1.3,1.77l-7.77,13.54q19.2-1.66,38.43-2.77c11.51-.67,11.59-18.67,0-18q-19.24,1.12-38.43,2.77c-6,.52-12.26,7.55-7.77,13.54,5.21,7,11.9,7.74,20,6.5,9-1.38,18-3.1,27-4.77,17.92-3.32,35.73-8,53.71-10.82,8.66-1.37,17.47-1.09,26.15-2.58a257.81,257.81,0,0,0,25.46-6.27l53.18-14.87-8.76-15c-4.41,3.44-10.43,5.14-15.61,7q-9.17,3.3-18.53,6.06a340.78,340.78,0,0,1-38,8.82c-4.79.83-7.48,6.71-6.29,11.07,1.39,5.06,6.27,7.12,11.07,6.29Z"/><path class="cls-1" d="M305.12,184.41c31.73-5.83,61.74-16.83,91.71-28.48,4.53-1.76,7.67-6,6.29-11.07-1.19-4.32-6.52-8.06-11.07-6.29-30,11.66-60,22.66-91.71,28.48-4.78.88-7.49,6.68-6.29,11.07,1.38,5,6.27,7.17,11.07,6.29Z"/><path class="cls-1" d="M361.93,164.87c13.1-5.14,26.68-11.42,37.36-20.77s12.59-22.74,13.27-36.13c.59-11.58-17.41-11.55-18,0-.47,9.26-1.18,18.11-9,24.22-8.33,6.54-18.62,11.47-28.43,15.32-4.52,1.77-7.67,6-6.29,11.07,1.18,4.31,6.52,8.07,11.07,6.29Z"/><path class="cls-1" d="M404.79,94.43q2.9,2.25-.17-1.58l1.23-4.54,1-.74a24,24,0,0,1-2.09,1.18,2.28,2.28,0,0,1-1.13.46q-.82.29,0-.27c-6-1.95-10.93,3.17-11.39,8.68a16.93,16.93,0,0,1-1.1,4.22h17.36a103.59,103.59,0,0,0-8.65-26.91L392,88.47l21.72,2c7,.64,14.17,1,21,3,11.78,3.47,15.89,12.47,17.12,24,.52,4.83,3.77,9,9,9,4.47,0,9.52-4.14,9-9-1.77-16.61-7.44-31.69-23.71-38.87C437.94,75,429.2,73.87,420.35,73c-9.44-.9-18.89-1.71-28.33-2.56-7.42-.67-10.38,8-7.77,13.54a87,87,0,0,1,6.83,22.61c1.6,9.51,14.7,7.54,17.36,0a35.54,35.54,0,0,0,1.74-9l-11.39,8.68c7,2.29,17-.88,21.45-7,5.64-7.77.63-16-6.37-20.45-9.8-6.25-18.84,9.33-9.08,15.54Z"/><path class="cls-1" d="M391.69,188.39q6.62-6.11,12.84-12.62c5.83-6.1.1-18.24-8.76-15a48.24,48.24,0,0,0-25.66,20.85c-4.92,8.25,4.58,16,12.31,12.31a105.38,105.38,0,0,0,33.85-25.1c5.11-5.8,8.89-12.33,8.43-20.3-.21-3.66-1-7.22-1-10.91a118.21,118.21,0,0,1,.84-13.18c.44-4.39-3.76-8.36-7.8-8.84-4.76-.57-8.15,2.17-9.87,6.45l-12.35,30.67,17.36,4.79c7.55-19.07,19.87-44.47,9-64.43l-14.14,10.91a363.6,363.6,0,0,0,32.29,25.24c5.83,4.05,13.41-1.41,13.54-7.77.39-18.54-11.54-34.76-28.72-41L419,97.71c1.52.49,16.63,5.73,16.77,5.44.28-.58-1.75-1.57-1.3-1.64,0,0-1.57,3-1.51,2.87-1.59,2.64-3.34,5.2-5,7.79l-21,32.74,16.45,6.94a143.4,143.4,0,0,1,3.14-14.5,48.73,48.73,0,0,1,2-6.63c.44-1,1.75-2.14.34-1.61l-11.07-6.29c3.06,7.63-.07,17.17-2.52,24.63-2.77,8.46-6.4,16.63-9.81,24.84-1.78,4.28,2,10.2,6.29,11.07,7.93,1.59,14.55-1.69,21.34-5.49,6.21-3.47,12-7.76,16.4-13.43C459.6,151.28,457,135,453,120.09c-1.91-7.13-12.92-9.21-16.45-2.15-3.68,7.37-5.67,15-7.11,23.1-.67,3.77-1.24,7.57-2.09,11.31-.28,1.23-.79,2.5-.94,3.75q-1.28,2.14-.53,1,3.41.23.7-.6v17.36c13.26-4.43,26.48-9.24,37.56-18,5.39-4.26,10.18-9.62,11.51-16.57A18.88,18.88,0,0,0,474.5,128c-1.38-3.17-3.9-5.5-5.38-8.6-3.39-7.13-14.61-5-16.45,2.15a59.07,59.07,0,0,1-7.38,17.18c-4,6.31-6.56,11.55-5.45,19.21.85,5.89,8.72,8,13.22,5.38,16.09-9.4,28.67-26.63,27-46C478.3,97.24,463.57,85.48,447.35,76L442.8,92.74a111.1,111.1,0,0,1,37.34,10c5.25,2.48,11,5.25,15.58,8.92s5.18,9.15,5.77,14.58c.87,8.07,9.06,11.46,15.36,6.36,5-4,6.14-11.19,4.2-17.06-2.22-6.73-7.9-10.58-14.16-13.17-13.54-5.59-25.46-13.83-40.73-11.66-6.53.93-8.84,11-4,15,2.66,2.21,7.24,3.76,9,6.74s1.51,6.75.3,9.88c-3.54,9.16-13.35,13.48-17.75,22-3.31,6.43.88,12.89,7.77,13.54,24.34,2.29,41.32-25.79,41-47.11L489,118.66c7.86,3.59,3.53,13.25-.77,18-8,8.93-18.41,14.83-25.67,24.57-5.07,6.81,3.27,14.71,10.16,13.22C493.62,170,504,148.3,517.09,133.74L503,131.92c-1-1.9.94-3.26-.94-1.55a31.5,31.5,0,0,0-2,2.49,55.1,55.1,0,0,1-5.19,5.2A50.36,50.36,0,0,1,483,145.46c-4.4,2.07-5.53,8.39-3.23,12.31,2.64,4.51,7.9,5.3,12.31,3.23,12.59-5.92,34.72-21.93,26.4-38.17-2.56-5-10.39-6-14.14-1.82-6,6.69-11,14.16-16.71,21.09-5.21,6.33-11.37,13.23-19.7,15l10.16,13.22c8.94-12,23.88-17.62,30.33-31.88,5.52-12.2,3-29.28-10.35-35.35-6-2.72-13.64.4-13.54,7.77.16,12.1-8.55,30.48-23,29.11l7.77,13.54c2.74-5.33,8.64-8.89,12.38-13.6,4-5,7.18-10.65,8.24-17a29.61,29.61,0,0,0-2.54-18.32,23.37,23.37,0,0,0-5.48-7.07c-2.13-1.84-4.89-2.76-7-4.51l-4,15c7.54-1.07,15.44,5,21.93,7.91,3.09,1.39,6.81,2.26,9.66,4.11a11.23,11.23,0,0,1,1.56,1.28c-1.33,0,2.75-3.71,0-1.5l15.36,6.36c-.93-8.58-2.12-17-7.78-23.91-5-6.06-12.47-10.09-19.35-13.59a134.91,134.91,0,0,0-49.55-14c-9.21-.82-11.81,12.51-4.54,16.77,10.15,6,22.53,13.15,23.83,26.14s-7.41,23.88-18.11,30.13l13.22,5.38c0,.11,2.27-3.24,2.73-4a76.12,76.12,0,0,0,4.23-7.26,79.26,79.26,0,0,0,5.85-15.6l-16.45,2.15c1.4,2.94,5.59,5.56,3.9,8.69-1.91,3.53-6.38,6.22-9.69,8.26-8.09,5-17.05,8-26,11s-8,14,0,17.36c11.33,4.75,20.42-6.07,22.74-16,2.41-10.27,2.78-21.29,7.56-30.87l-16.45-2.15c2.32,8.66,5.76,19.61.27,27.78a28.05,28.05,0,0,1-8.64,7.75c-2.17,1.37-8.69,6-10.73,5.6l6.29,11.07c3.86-9.3,8-18.56,10.87-28.25,2.78-9.51,5.27-21.28,1.46-30.8-1.68-4.18-6.11-8.16-11.07-6.29-13.65,5.15-16,22.59-18.08,35.31-1.63,9.8,10.66,15.94,16.45,6.94l14.73-22.91c4.24-6.6,9.31-13.14,12.77-20.19,3.54-7.2,3.54-15.9-2.83-21.52-5.84-5.15-16.09-6.67-23.33-9-11.14-3.6-15.52,13.43-4.79,17.36,9.74,3.57,15.72,13.57,15.51,23.69L448,113.63a322.27,322.27,0,0,1-28.65-22.42c-7.56-6.63-19.2,1.65-14.14,10.91,3.89,7.12,1,16.22-1.06,23.47-2.64,9.23-6.18,18.17-9.71,27.08-1.79,4.52,2,9.88,6.29,11.07,5.14,1.41,9.25-1.76,11.07-6.29l12.35-30.67L406.5,124.4c-.71,7.14-1.1,14.06-.16,21.2.28,2.09.79,4.33.05,6.37-.89,2.46-3.31,4.65-5.07,6.48a93.91,93.91,0,0,1-28,19.89l12.31,12.31a28.67,28.67,0,0,1,14.9-12.58l-8.76-15q-6.22,6.51-12.84,12.62c-8.53,7.88,4.23,20.58,12.73,12.73Z"/><path class="cls-1" d="M338,211.72a206.64,206.64,0,0,0,44.68-11.19c14.27-5.22,28.26-11.15,42.81-15.56l-6.94-16.45c-10.75,8.08-21.37,16.41-32.36,24.16-9.6,6.77-19.54,12.48-31.35,14.07l4.79,17.36a267.12,267.12,0,0,0,114.92-57.86l-15.36-6.36c-.76,5.8-12.35,9.3-16.6,11.24-8.08,3.68-16.29,8.49-25.1,10l4.79,17.36c11-4.25,21.84-8.92,32.42-14.12q7.41-3.64,14.66-7.61c4.77-2.62,10.24-5.74,11-11.69.65-4.81-1.16-9.66-6.29-11.07-4.19-1.15-10.41,1.44-11.07,6.29q2.89-2.51.43-.84l-3.21,1.78q-3.22,1.77-6.47,3.47-5.7,3-11.49,5.75-12.2,5.84-24.82,10.71c-10.8,4.18-6.71,19.38,4.79,17.36,11.87-2.09,23.54-9.08,34.39-14.13s18.92-12.23,20.53-24.51c1.11-8.51-10.18-10.8-15.36-6.36a248.2,248.2,0,0,1-107,53.23c-4.74,1.06-7.53,6.55-6.29,11.07,1.43,5.2,6.23,6.94,11.07,6.29,12.56-1.7,24-7.8,34.28-14.93,11.52-8,22.54-16.71,33.73-25.12,3.58-2.69,5.62-6.82,3.68-11.24a9,9,0,0,0-10.62-5.21C393,176,367,190,338,193.72c-4.82.63-9,3.69-9,9,0,4.38,4.15,9.63,9,9Z"/><path class="cls-1" d="M176.67,232.06c25.38,16.22,58.64,6.22,85.92,1.2q23.31-4.29,46.5-9.19,11.11-2.34,22.2-4.83,5.78-1.29,11.56-2.63l5.77-1.34,2.88-.68q3.49-.71.72-.31l-4-2.31.73.82-2.64-6.36.05,1.34,1.23-4.54c-.37.61-4.21,1.35-5.26,1.64-3,.83-6,1.55-9.05,2.3q-9.41,2.34-18.88,4.46Q296,215.76,277.34,219a569.59,569.59,0,0,1-75.61,7.79c-11.55.4-11.6,18.4,0,18,48-1.66,95.57-9.74,142-21.62,4.87-1.25,10.05-2.5,14.29-5.33,5.86-3.91,8.91-11.9,3.68-17.72-3.78-4.2-8.89-4.16-14-3.06-6.11,1.31-12.18,2.85-18.28,4.22q-35.65,8-71.59,14.66c-13,2.4-26.15,5.28-39.33,6.5-11.42,1.06-22.83.44-32.73-5.88s-18.83,9.32-9.08,15.54Z"/><path class="cls-1" d="M199.38,247.55c29.14,3.64,59-3.35,87.5-9q21.42-4.24,42.69-9.2c13.59-3.17,27.84-5.76,40.16-12.63,10.12-5.64,1.05-21.19-9.08-15.54-11.36,6.33-25.21,8.35-37.75,11.25q-20.32,4.71-40.8,8.76c-27,5.35-55,11.8-82.71,8.34-4.83-.6-9,4.57-9,9,0,5.37,4.15,8.39,9,9Z"/><path class="cls-1" d="M58.36,197.61c3.78,12.7,12.73,21.65,24.89,26.53,12.64,5.07,26.76,8.35,40.22,10.24,28.66,4,57.85.43,86.43,5,4.79.76,9.68-1.23,11.07-6.29,1.18-4.28-1.46-10.3-6.29-11.07-26.3-4.19-52.85-2-79.28-4.25-12.6-1.07-24.72-4.07-36.85-7.53-10.12-2.89-19.58-6.44-22.84-17.4S55,186.46,58.36,197.61Z"/><path class="cls-1" d="M62.05,219.13c7.34,10.16,17.84,15.58,29.64,19.17a246,246,0,0,0,42.15,9.06c14.73,1.76,29.58.83,44.34,0q22.76-1.32,45.51-2.76c11.51-.71,11.59-18.72,0-18q-20.33,1.26-40.66,2.48c-13.81.81-27.69,1.87-41.53,1-13.11-.82-25.92-4-38.59-7.32-8.76-2.3-19.67-4.91-25.3-12.69-2.84-3.93-7.83-5.85-12.31-3.23-3.88,2.27-6.09,8.35-3.23,12.31Z"/><path class="cls-1" d="M61.77,233.75c10.3,7.94,23.31,9,35.72,10.82,14,2,27.81,5.12,41.81,7.11a171.68,171.68,0,0,0,43.1,1c15-1.62,30-3.31,45.06-5,4.83-.53,9-3.75,9-9,0-4.45-4.14-9.54-9-9-27.67,3.05-55.83,8.42-83.64,4.54-13.29-1.85-26.41-4.8-39.68-6.8-11.4-1.72-23.8-2-33.28-9.28-3.85-3-10.08-.59-12.31,3.23-2.72,4.65-.63,9.34,3.23,12.31Z"/><path class="cls-1" d="M25.32,166.3C14.42,169.17,8,180.89,5.67,191.18,3.09,202.39,3.88,214.69,13.77,222a75.51,75.51,0,0,0,29.75,12.74c10.35,2,24.18,4.06,32.84-3.21,3.78-3.17,3.14-9.47,0-12.73-5.58-5.81-12.83-7.53-20.11-10.23-6.81-2.52-11.35-8.14-17-12.47C33,191.28,22.62,186,16.77,194.21c-6.4,9,3.22,18.31,11.71,20.45,11.24,2.83,16-14.53,4.79-17.36-3.51-.88-.21-1.06-.43,2.36L30.2,206l.6-.69-4,2.31.92-.17H23c7.43,1.61,13,10.19,19.25,14.19,6.44,4.12,16.09,4.27,21.42,9.81V218.76c1.61-1.35-1-.5-2-.47q-2.5.08-5,0a56.61,56.61,0,0,1-10-1.27A63.64,63.64,0,0,1,28,209.77c-1.95-1.14-4.41-2.12-5.26-4.29s-.39-5.65,0-7.91c.64-4,2.92-12.73,7.41-13.91,11.19-3,6.44-20.32-4.79-17.36Z"/><path class="cls-1" d="M12.89,213.46c.94,5-.11,9.7,2.85,14.34,3.42,5.37,9.49,7.08,15.27,8.62q19.21,5.11,38.46,10.09c25.44,6.59,51.18,13.16,77.55,8.39,4.79-.87,7.49-6.69,6.29-11.07-1.38-5-6.27-7.15-11.07-6.29-21.58,3.9-43.44-2.06-64.22-7.42Q62,226,46.1,221.79l-8.44-2.23c-1.54-.41-5.94-2.47-7.33-2-.78.25.75-.06.73.91A15.74,15.74,0,0,1,31,216.7c.34-2.56-.27-5.53-.74-8-.89-4.78-6.67-7.5-11.07-6.29-5,1.38-7.18,6.28-6.29,11.07Z"/><path class="cls-1" d="M119.56,124.5s-.11.44-.05.49.06-.12.07-.12a10,10,0,0,0,1.61-.91l-4.1-4.1a6.32,6.32,0,0,0-.62,2.65,3,3,0,0,0,.06.88q-.08,1,.61-.43.15-.75.71-.78c-.07-.08-1.26-.13-1.48-.22a2.83,2.83,0,0,1-1-.67,3.1,3.1,0,0,0-4.1-1.08c-1.26.74-2.07,2.81-1.08,4.1a9,9,0,0,0,7.61,3.87,4.76,4.76,0,0,0,4-2.06,4.91,4.91,0,0,0,.64-2.4c0-.23,0-.46,0-.69,0-.53.16-1-.23-.15,1.19-2.74-1.26-5.5-4.1-4.1a8.23,8.23,0,0,0-3.93,3.34,5.3,5.3,0,0,0,.15,5.4,3.07,3.07,0,0,0,4.1,1.08,3,3,0,0,0,1.08-4.1Z"/><path class="cls-1" d="M381.37,72c.67-3.3,3.42-1.6,2-1.78l-.47,0a4.84,4.84,0,0,0-1.58.12,3.6,3.6,0,0,0-2.54,4.28c.59,2.5,3,4.75,5.25,5.76a3.09,3.09,0,0,0,4.1-1.08c.75-1.28.41-3.44-1.08-4.1-.38-.17-.73-.37-1.08-.57s-.34-.23-.14-.07q-.24-.2-.45-.41t-.42-.45l-.09-.13q-.17-.26-.32-.53-.39-.8.14.54l-.41,1.51a2.08,2.08,0,0,1-1.61,1.06q-.4,0-.15,0a1.94,1.94,0,0,0,.46,0,5.57,5.57,0,0,0,.87,0,3.5,3.5,0,0,0,3.32-2.62,3,3,0,1,0-5.79-1.6Z"/></g><g id="lights"><ellipse class="cls-4" cx="155.96" cy="158.51" rx="6.68" ry="10.02" transform="translate(-12.77 303.35) rotate(-86.11)"/><ellipse class="cls-4" cx="360.76" cy="122.15" rx="10.02" ry="6.68" transform="translate(-18.48 157.46) rotate(-24.03)"/><ellipse class="cls-4" cx="296.89" cy="145.68" rx="10.02" ry="6.68" transform="matrix(0.96, -0.28, 0.28, 0.96, -28.62, 87.3)"/><ellipse class="cls-4" cx="226.98" cy="158.09" rx="10.02" ry="6.68" transform="translate(-10.88 16.89) rotate(-4.16)"/></g></g></svg>