<svg xmlns="http://www.w3.org/2000/svg" viewBox="0 0 403.76 104.35"><defs><style>.cls-1{fill:#fffa19;}.cls-2{fill:#3fc;}.cls-3{fill:#f63;}.cls-4{fill:none;stroke:#3fc;stroke-miterlimit:10;}.cls-5{fill:#fffa18;}</style></defs><title>mobile_logo</title><g id="Layer_2" data-name="Layer 2"><g id="nav_icons"><g id="nav"><path class="cls-1" d="M7.07,99.52A5.58,5.58,0,0,1,6.18,103a3.27,3.27,0,0,1-2.71,1.11,3.34,3.34,0,0,1-2.63-1A5.22,5.22,0,0,1,0,99.77v-13q0-3.69,3.48-3.69a4.47,4.47,0,0,1,2.69.68,3.28,3.28,0,0,1,.91,2.74Z"/><path class="cls-1" d="M30.75,101.21a2.86,2.86,0,0,1-.8,2.14,3.2,3.2,0,0,1-2.34.78,3.53,3.53,0,0,1-.8-.09,3.28,3.28,0,0,1-.85-.34q-.45-.25-.78-.46a7.27,7.27,0,0,1-.85-.66l-.8-.71-.91-.85-.89-.86-5.63-5.32v6.67a2.86,2.86,0,0,1-.57,2.06,2.5,2.5,0,0,1-1.8.55,2.81,2.81,0,0,1-2-.62,2.75,2.75,0,0,1-.65-2.06V86.61A3.59,3.59,0,0,1,12,84a3.46,3.46,0,0,1,2.55-.89,4,4,0,0,1,1.83.35A7.39,7.39,0,0,1,18,84.7l7.78,7.75v-6.7a2.69,2.69,0,0,1,.66-2,2.43,2.43,0,0,1,1.8-.66,2.54,2.54,0,0,1,1.91.61,2.84,2.84,0,0,1,.58,2Z"/><path class="cls-1" d="M46.83,99.52a7.37,7.37,0,0,1-.43,2.78,2.71,2.71,0,0,1-1.18,1.43,4.24,4.24,0,0,1-2,.4,3.25,3.25,0,0,1-2.63-1,5.55,5.55,0,0,1-.85-3.43L39.7,88.39H37.09a5.49,5.49,0,0,1-2.91-.62,2.38,2.38,0,0,1-1-2.18,2.6,2.6,0,0,1,.38-1.51,2.06,2.06,0,0,1,1.15-.78,7.41,7.41,0,0,1,2.06-.23H50a4,4,0,0,1,2.49.61,2.57,2.57,0,0,1,.77,2.12,2.51,2.51,0,0,1-.45,1.58,2.27,2.27,0,0,1-1.18.78,7,7,0,0,1-1.91.22H46.83Z"/><path class="cls-1" d="M68.85,91.65a3.79,3.79,0,0,1,2.29.52A2.15,2.15,0,0,1,71.8,94,1.58,1.58,0,0,1,71,95.45a5.13,5.13,0,0,1-2.44.45h-5v3.26l6.67,0a4.58,4.58,0,0,1,2.48.51,2,2,0,0,1,.75,1.8,2.29,2.29,0,0,1-.88,2.06,4.85,4.85,0,0,1-2.66.58H60a3.35,3.35,0,0,1-2.66-1,5.28,5.28,0,0,1-.85-3.43v-13q0-3.69,3.51-3.69H70a5.08,5.08,0,0,1,2.66.55,2.73,2.73,0,0,1,.12,3.89,4.37,4.37,0,0,1-2.48.54h-6.7v3.6Z"/><path class="cls-1" d="M84,99.52q0,4.61-3.6,4.61a3.35,3.35,0,0,1-2.66-1,5.28,5.28,0,0,1-.85-3.43v-13a3.62,3.62,0,0,1,1-2.72,3.49,3.49,0,0,1,2.54-.94h6.46A9.88,9.88,0,0,1,93,84.87a5.91,5.91,0,0,1,1.46,7.81,5.1,5.1,0,0,1-2.81,1.74,4.1,4.1,0,0,1,2.74,1.43,4.68,4.68,0,0,1,1.26,3.34,9.85,9.85,0,0,1-.38,3.12,2.47,2.47,0,0,1-1.09,1.46,4.4,4.4,0,0,1-2,.37,3.92,3.92,0,0,1-2.66-.75,2.91,2.91,0,0,1-.85-2.29,9.09,9.09,0,0,0-.37-2.94,2.3,2.3,0,0,0-1-1.34,3.55,3.55,0,0,0-1.63-.31l-1.69,0Zm4.71-10.33a2.07,2.07,0,0,0-1.08-2A8.55,8.55,0,0,0,84,86.61v5.32a8,8,0,0,0,3.55-.6A2.19,2.19,0,0,0,88.69,89.19Z"/><path class="cls-1" d="M107.69,82.85a12.19,12.19,0,0,1,6.24,1.51q2.58,1.51,2.58,3.2a1.47,1.47,0,0,1-.2.78,1.18,1.18,0,0,1-.49.46,1.46,1.46,0,0,1-.63.14,4.16,4.16,0,0,1-1.66-.57q-1.11-.57-2.46-1.14a6.49,6.49,0,0,0-2.49-.57q-1.81,0-1.81,1.48a1.49,1.49,0,0,0,.29.88,3.7,3.7,0,0,0,.94.86,14.42,14.42,0,0,0,1.26.78l1.69.91q1.08.57,1.81,1a11.36,11.36,0,0,1,3.32,2.58A4.5,4.5,0,0,1,117,98q0,6.37-8.58,6.37a15.63,15.63,0,0,1-3.28-.34,12.89,12.89,0,0,1-2.77-.89,12,12,0,0,1-2.09-1.23A5.59,5.59,0,0,1,99,100.51a2.45,2.45,0,0,1-.46-1.32A1.62,1.62,0,0,1,98.94,98a1.7,1.7,0,0,1,1.31-.48,14.32,14.32,0,0,1,3.11.81,13.37,13.37,0,0,0,4,.81q1.38,0,1.38-1a1.18,1.18,0,0,0-.11-.51,1.46,1.46,0,0,0-.37-.46,4.24,4.24,0,0,0-.58-.43q-.32-.2-.89-.51l-1.14-.61-1.49-.8q-.92-.49-1.78-1a7.24,7.24,0,0,1-2-1.6,6.74,6.74,0,0,1-1.18-1.89,4.77,4.77,0,0,1-.37-1.74,5,5,0,0,1,2.31-4.21A11.24,11.24,0,0,1,107.69,82.85Z"/><path class="cls-1" d="M132.08,99.52a7.37,7.37,0,0,1-.43,2.78,2.71,2.71,0,0,1-1.18,1.43,4.24,4.24,0,0,1-2,.4,3.25,3.25,0,0,1-2.63-1,5.55,5.55,0,0,1-.85-3.43l-.06-11.35h-2.61a5.49,5.49,0,0,1-2.91-.62,2.38,2.38,0,0,1-1-2.18,2.6,2.6,0,0,1,.38-1.51A2.06,2.06,0,0,1,120,83.3a7.41,7.41,0,0,1,2.06-.23h13.16a4,4,0,0,1,2.49.61,2.57,2.57,0,0,1,.77,2.12,2.51,2.51,0,0,1-.45,1.58,2.27,2.27,0,0,1-1.18.78,7,7,0,0,1-1.91.22h-2.86Z"/><path class="cls-1" d="M154.09,91.65a3.79,3.79,0,0,1,2.29.52A2.15,2.15,0,0,1,157,94a1.58,1.58,0,0,1-.78,1.49,5.13,5.13,0,0,1-2.44.45h-5v3.26l6.67,0a4.58,4.58,0,0,1,2.48.51,2,2,0,0,1,.75,1.8,2.29,2.29,0,0,1-.88,2.06,4.85,4.85,0,0,1-2.66.58h-10a3.35,3.35,0,0,1-2.66-1,5.28,5.28,0,0,1-.85-3.43v-13q0-3.69,3.51-3.69h10a5.08,5.08,0,0,1,2.66.55,2.73,2.73,0,0,1,.12,3.89,4.37,4.37,0,0,1-2.48.54h-6.7v3.6Z"/><path class="cls-1" d="M166.18,104.13a5.55,5.55,0,0,1-2.28-.45,2.68,2.68,0,0,1-1.29-1.37,6.29,6.29,0,0,1-.43-2.55v-13a3.76,3.76,0,0,1,1-2.66,3.27,3.27,0,0,1,2.52-1,4.45,4.45,0,0,1,2.72.68,3.34,3.34,0,0,1,.88,2.74V98.81h5.26a4.45,4.45,0,0,1,2.51.52,2.54,2.54,0,0,1,.72,2.15q0,1.66-.83,2.15a5.56,5.56,0,0,1-2.71.49Z"/><path class="cls-1" d="M184.88,104.13a5.55,5.55,0,0,1-2.28-.45,2.68,2.68,0,0,1-1.29-1.37,6.29,6.29,0,0,1-.43-2.55v-13a3.76,3.76,0,0,1,1-2.66,3.27,3.27,0,0,1,2.52-1,4.45,4.45,0,0,1,2.72.68,3.34,3.34,0,0,1,.88,2.74V98.81h5.26a4.45,4.45,0,0,1,2.51.52,2.54,2.54,0,0,1,.72,2.15q0,1.66-.83,2.15a5.56,5.56,0,0,1-2.71.49Z"/><path class="cls-1" d="M211.2,99.46h-5.1v1.63a2.93,2.93,0,0,1-.83,2.31,4.32,4.32,0,0,1-2.86.74,3.49,3.49,0,0,1-1.41-.25,2.38,2.38,0,0,1-1-.83,4.26,4.26,0,0,1-.62-1.71,25.62,25.62,0,0,1-.31-2.71q-.11-1.58-.11-4a15.87,15.87,0,0,1,.45-3.89,10.74,10.74,0,0,1,1.2-3,11.33,11.33,0,0,1,1.71-2.17,7.43,7.43,0,0,1,2.08-1.46,12,12,0,0,1,2.18-.78,8.92,8.92,0,0,1,2.14-.26,9.43,9.43,0,0,1,2.55.35,9,9,0,0,1,2.55,1.21,9.31,9.31,0,0,1,2.26,2.14,10.48,10.48,0,0,1,1.58,3.31,15.7,15.7,0,0,1,.61,4.55,44.71,44.71,0,0,1-.29,6,5.33,5.33,0,0,1-1,2.72,2.73,2.73,0,0,1-2.14.77,4.32,4.32,0,0,1-2.86-.74,2.94,2.94,0,0,1-.83-2.31Zm-2.52-11.38a2.38,2.38,0,0,0-2,.77,4.43,4.43,0,0,0-.63,2.74v3.63h5.1V91.53a5.79,5.79,0,0,0-.31-2.08,2,2,0,0,0-.85-1.08A2.85,2.85,0,0,0,208.68,88.08Z"/><path class="cls-1" d="M228.51,99.52q0,4.61-3.6,4.61a3.35,3.35,0,0,1-2.66-1,5.28,5.28,0,0,1-.85-3.43v-13a3.62,3.62,0,0,1,1-2.72,3.49,3.49,0,0,1,2.54-.94h6.46a9.88,9.88,0,0,1,6.12,1.77A5.91,5.91,0,0,1,239,92.68a5.1,5.1,0,0,1-2.81,1.74,4.1,4.1,0,0,1,2.74,1.43,4.68,4.68,0,0,1,1.26,3.34,9.85,9.85,0,0,1-.38,3.12,2.47,2.47,0,0,1-1.09,1.46,4.4,4.4,0,0,1-2,.37,3.92,3.92,0,0,1-2.66-.75,2.91,2.91,0,0,1-.85-2.29,9.09,9.09,0,0,0-.37-2.94,2.3,2.3,0,0,0-1-1.34,3.55,3.55,0,0,0-1.63-.31l-1.69,0Zm4.71-10.33a2.07,2.07,0,0,0-1.08-2,8.55,8.55,0,0,0-3.63-.55v5.32a8,8,0,0,0,3.55-.6A2.19,2.19,0,0,0,233.21,89.19Z"/><path class="cls-1" d="M259,99.52q0,4.61-3.6,4.61a3.35,3.35,0,0,1-2.66-1,5.28,5.28,0,0,1-.85-3.43v-13a3.62,3.62,0,0,1,1-2.72,3.49,3.49,0,0,1,2.54-.94h6.46a9.88,9.88,0,0,1,6.12,1.77,5.91,5.91,0,0,1,1.46,7.81,5.1,5.1,0,0,1-2.81,1.74,4.1,4.1,0,0,1,2.74,1.43,4.68,4.68,0,0,1,1.26,3.34,9.85,9.85,0,0,1-.38,3.12,2.47,2.47,0,0,1-1.09,1.46,4.4,4.4,0,0,1-2,.37,3.92,3.92,0,0,1-2.66-.75,2.91,2.91,0,0,1-.85-2.29,9.09,9.09,0,0,0-.37-2.94,2.3,2.3,0,0,0-1-1.34,3.55,3.55,0,0,0-1.63-.31l-1.69,0Zm4.71-10.33a2.07,2.07,0,0,0-1.08-2,8.55,8.55,0,0,0-3.63-.55v5.32a8,8,0,0,0,3.55-.6A2.19,2.19,0,0,0,263.66,89.19Z"/><path class="cls-1" d="M286.63,91.65a3.79,3.79,0,0,1,2.29.52,2.15,2.15,0,0,1,.66,1.78,1.58,1.58,0,0,1-.78,1.49,5.13,5.13,0,0,1-2.44.45h-5v3.26l6.67,0a4.58,4.58,0,0,1,2.48.51,2,2,0,0,1,.75,1.8,2.29,2.29,0,0,1-.88,2.06,4.85,4.85,0,0,1-2.66.58h-10a3.35,3.35,0,0,1-2.66-1,5.28,5.28,0,0,1-.85-3.43v-13q0-3.69,3.51-3.69h10a5.08,5.08,0,0,1,2.66.55,2.73,2.73,0,0,1,.12,3.89,4.37,4.37,0,0,1-2.48.54h-6.7v3.6Z"/><path class="cls-1" d="M306.09,88.85a1.41,1.41,0,0,0-.54-1.11,1.9,1.9,0,0,0-1.28-.46A2.79,2.79,0,0,0,301.85,89a7.54,7.54,0,0,0-1,3.8,6.8,6.8,0,0,0,.62,2.94,4.94,4.94,0,0,0,1.78,2.08,4.81,4.81,0,0,0,2.71.77,5.51,5.51,0,0,0,2.18-.45,6.82,6.82,0,0,0,1.69-1,13.58,13.58,0,0,1,1.34-1,2.34,2.34,0,0,1,1.21-.45,1.53,1.53,0,0,1,1.17.54,1.66,1.66,0,0,1,.49,1.12,3.8,3.8,0,0,1-.38,1.51,7.74,7.74,0,0,1-1.21,1.83,11.57,11.57,0,0,1-1.94,1.78,9.68,9.68,0,0,1-2.75,1.35,11.07,11.07,0,0,1-3.46.54,13.25,13.25,0,0,1-4.44-.72,10.6,10.6,0,0,1-3.55-2.06A9.25,9.25,0,0,1,294,98.2a11.54,11.54,0,0,1-.86-4.55,10.45,10.45,0,0,1,3-7.87,10.75,10.75,0,0,1,7.81-2.89,12.23,12.23,0,0,1,4.55.83A8.12,8.12,0,0,1,311.78,86,4.94,4.94,0,0,1,313,89.25a5.64,5.64,0,0,1-1.35,3.67,4.33,4.33,0,0,1-3.51,1.65,3.82,3.82,0,0,1-2.21-.68A2.21,2.21,0,0,1,305,92a3.79,3.79,0,0,1,.57-1.63A3.84,3.84,0,0,0,306.09,88.85Z"/><path class="cls-1" d="M333.43,103.1a12.84,12.84,0,0,1-10.9,0,9.29,9.29,0,0,1-3.86-3.64,11,11,0,0,1-1.45-5.72,10.79,10.79,0,1,1,21.56,0,10.89,10.89,0,0,1-1.46,5.72A9.37,9.37,0,0,1,333.43,103.1ZM328,99.83a2.26,2.26,0,0,0,1.8-.92,5.59,5.59,0,0,0,1.08-2.28,12.44,12.44,0,0,0,.32-2.89,12.59,12.59,0,0,0-.34-3,6.31,6.31,0,0,0-1.09-2.38,2.19,2.19,0,0,0-1.77-1,2.13,2.13,0,0,0-1.72,1,6.82,6.82,0,0,0-1.11,2.4,11.65,11.65,0,0,0-.37,3,11.37,11.37,0,0,0,.35,2.89,5.89,5.89,0,0,0,1.11,2.28A2.2,2.2,0,0,0,328,99.83Z"/><path class="cls-1" d="M349.33,99.52q0,4.61-3.6,4.61a3.35,3.35,0,0,1-2.66-1,5.28,5.28,0,0,1-.85-3.43v-13a3.62,3.62,0,0,1,1-2.72,3.49,3.49,0,0,1,2.54-.94h6.46a9.88,9.88,0,0,1,6.12,1.77,5.91,5.91,0,0,1,1.46,7.81A5.1,5.1,0,0,1,357,94.42a4.1,4.1,0,0,1,2.74,1.43A4.68,4.68,0,0,1,361,99.18a9.85,9.85,0,0,1-.38,3.12,2.47,2.47,0,0,1-1.09,1.46,4.4,4.4,0,0,1-2,.37,3.92,3.92,0,0,1-2.66-.75,2.91,2.91,0,0,1-.85-2.29,9.09,9.09,0,0,0-.37-2.94,2.3,2.3,0,0,0-1-1.34,3.55,3.55,0,0,0-1.63-.31l-1.69,0ZM354,89.19a2.07,2.07,0,0,0-1.08-2,8.55,8.55,0,0,0-3.63-.55v5.32a8,8,0,0,0,3.55-.6A2.19,2.19,0,0,0,354,89.19Z"/><path class="cls-1" d="M372.64,83.1a10.71,10.71,0,0,1,7.7,2.77,10,10,0,0,1,2.91,7.63,15.67,15.67,0,0,1-.29,3,11.94,11.94,0,0,1-1,2.88,9,9,0,0,1-1.69,2.43,7.49,7.49,0,0,1-2.58,1.66,9.41,9.41,0,0,1-3.54.63h-6.06a3.36,3.36,0,0,1-2.69-1,5.42,5.42,0,0,1-.82-3.44v-13q0-3.66,3.51-3.66ZM371.72,100a5.18,5.18,0,0,0,1.4-.17,3.1,3.1,0,0,0,1.14-.62,3.29,3.29,0,0,0,.88-1.18,7.86,7.86,0,0,0,.54-1.89,16.2,16.2,0,0,0,.2-2.72,12.27,12.27,0,0,0-.31-3,4.2,4.2,0,0,0-.89-1.85,3.37,3.37,0,0,0-1.28-.89,5.23,5.23,0,0,0-1.68-.29Z"/><path class="cls-1" d="M394.41,82.85a12.19,12.19,0,0,1,6.24,1.51q2.58,1.51,2.58,3.2a1.47,1.47,0,0,1-.2.78,1.18,1.18,0,0,1-.49.46,1.46,1.46,0,0,1-.63.14,4.16,4.16,0,0,1-1.66-.57q-1.11-.57-2.46-1.14a6.49,6.49,0,0,0-2.49-.57q-1.81,0-1.81,1.48a1.49,1.49,0,0,0,.29.88,3.7,3.7,0,0,0,.94.86,14.42,14.42,0,0,0,1.26.78l1.69.91q1.08.57,1.81,1a11.36,11.36,0,0,1,3.32,2.58,4.5,4.5,0,0,1,1,2.83q0,6.37-8.58,6.37a15.63,15.63,0,0,1-3.28-.34,12.89,12.89,0,0,1-2.77-.89,12,12,0,0,1-2.09-1.23,5.59,5.59,0,0,1-1.37-1.38,2.45,2.45,0,0,1-.46-1.32,1.62,1.62,0,0,1,.45-1.15,1.7,1.7,0,0,1,1.31-.48,14.32,14.32,0,0,1,3.11.81,13.37,13.37,0,0,0,4,.81q1.38,0,1.38-1a1.18,1.18,0,0,0-.11-.51,1.46,1.46,0,0,0-.37-.46,4.24,4.24,0,0,0-.58-.43q-.32-.2-.89-.51l-1.14-.61-1.49-.8q-.92-.49-1.78-1a7.24,7.24,0,0,1-2-1.6,6.74,6.74,0,0,1-1.18-1.89,4.77,4.77,0,0,1-.37-1.74,5,5,0,0,1,2.31-4.21A11.24,11.24,0,0,1,394.41,82.85Z"/></g></g><g id="nav_logo"><g id="Layer_2-2" data-name="Layer 2"><g id="main_shapes" data-name="main shapes"><path class="cls-2" d="M246.19,18.49c13.59,1.72,21.65,5.89,22.69,11.73S263.78,42.75,251.62,49A136.51,136.51,0,0,1,228,58.25l.77-1a5.53,5.53,0,0,1-1.71.11l0-.17a136.25,136.25,0,0,0,24-9.29c11.46-5.93,17.51-12.29,16.59-17.46S258.83,21.39,246,19.77a119.1,119.1,0,0,0-15.26-.85,1.27,1.27,0,0,0-.12-.47,2.46,2.46,0,0,0-.59-.82A121.83,121.83,0,0,1,246.19,18.49Z"/><path class="cls-2" d="M227.09,57.37a5.53,5.53,0,0,0,1.71-.11l-.77,1-2.24.65C226.24,58.4,226.67,57.89,227.09,57.37Z"/><path class="cls-2" d="M227,57.2l0,.17c-.42.51-.85,1-1.3,1.53q-10.09,2.84-20.43,4.66c-7.05,1.25-14,2.14-20.79,2.65q-.71-.38-1.4-.77l0-.41a206.59,206.59,0,0,0,22-2.73A207.77,207.77,0,0,0,227,57.2Z"/><path class="cls-2" d="M225.79,58.95,228,58.3a35.37,35.37,0,0,1-45.8,8.12h.16l2.18-.15A34.07,34.07,0,0,0,225.79,59Z"/><path class="cls-3" d="M225.79,58.89a34.07,34.07,0,0,1-41.22,7.31c6.75-.51,13.74-1.4,20.79-2.65Q215.69,61.74,225.79,58.89Z"/><path class="cls-2" d="M183.16,65.5q.69.41,1.4.77l-2.18.15h-.16l-1-.61A12.36,12.36,0,0,0,183.16,65.5Z"/><path class="cls-2" d="M183.14,65l0,.41a12.36,12.36,0,0,1-1.92.33c.33.21.66.42,1,.61-13,.82-24.42.17-33-1.89-9-2.15-14.18-5.74-15-10.36-1-5.84,5.09-12.53,17.26-18.82a121.57,121.57,0,0,1,15.07-6.43,5.59,5.59,0,0,0,.06,1.34,120,120,0,0,0-14.54,6.23c-11.46,5.93-17.51,12.29-16.59,17.46.72,4.08,5.58,7.31,14,9.34s19.81,2.67,32.77,1.84Z"/><path class="cls-4" d="M182.23,66.37A35.37,35.37,0,0,0,228,58.25"/><path class="cls-4" d="M225.79,58.89a34.07,34.07,0,0,1-41.22,7.31"/><path class="cls-4" d="M228,58.17A136.51,136.51,0,0,0,251.62,49c12.17-6.29,18.3-13,17.26-18.82s-9.09-10-22.69-11.73a121.83,121.83,0,0,0-16.13-.86,2.46,2.46,0,0,1,.59.82,1.27,1.27,0,0,1,.12.47,119.1,119.1,0,0,1,15.26.85c12.8,1.62,20.67,5.52,21.59,10.68S262.47,41.91,251,47.84a135.93,135.93,0,0,1-24,9.29,207.77,207.77,0,0,1-21.91,5.09,206.59,206.59,0,0,1-22,2.73l-.83.06c-13,.83-24.29.19-32.77-1.84s-13.31-5.26-14-9.34c-.92-5.17,5.14-11.53,16.59-17.46a120,120,0,0,1,14.55-6.23,5.59,5.59,0,0,1-.06-1.34,121.57,121.57,0,0,0-15.07,6.43c-12.18,6.3-18.31,13-17.27,18.83.82,4.63,6,8.21,15,10.36,8.56,2.06,20,2.71,33,1.89h.16l2.18-.15c6.75-.51,13.74-1.4,20.79-2.65q10.33-1.82,20.43-4.66Z"/><path class="cls-2" d="M235.38,29.44v0a3.62,3.62,0,0,0-.3-.74,1.45,1.45,0,0,1-.65.35,1,1,0,0,1-.2.39l-.12.12a34.19,34.19,0,0,0-67.29,12.12,4.15,4.15,0,0,1-.3-2,4.65,4.65,0,0,1-.16-.61,4.17,4.17,0,0,0-.77,3,35.46,35.46,0,0,1,69.78-12.71Z"/><path class="cls-2" d="M235.25,29.47c0,.11.05.21.07.31.36,2-.95,5.24-9.21,9.19-6.21,3-14.7,5.5-23.92,7.14a97.85,97.85,0,0,1-24.91,1.54c-9.11-.87-11.45-3.45-11.81-5.46v0l.09.18,0,0,.41.6a2.49,2.49,0,0,1,.16.31l.89.17c-.11-.49-.22-1-.31-1.5.77,4.28,15.1,6.46,35.23,2.89S234.81,34.3,234.05,30q.26,1.45.39,2.9a7.09,7.09,0,0,0,.51-.84A23.37,23.37,0,0,1,235.25,29.47Z"/><path class="cls-2" d="M235,28.74a3.62,3.62,0,0,1,.3.74,23.37,23.37,0,0,0-.3,2.6,7.09,7.09,0,0,1-.51.84q-.13-1.44-.39-2.9h0l-.07-.4.12-.12a1,1,0,0,0,.2-.39A1.45,1.45,0,0,0,235,28.74Z"/><path class="cls-2" d="M234,29.6c0,.13,0,.26.07.4a2.12,2.12,0,0,0-.1-.36Z"/><path class="cls-3" d="M234.12,30h0c.76,4.3-12,11.27-32.08,14.84s-34.47,1.39-35.23-2.89h0c0-.06,0-.12,0-.17l0-.05A34.18,34.18,0,0,1,234,29.6l0,0A2.12,2.12,0,0,1,234.12,30Z"/><path class="cls-2" d="M166.31,39.11a4.65,4.65,0,0,0,.16.61,4.15,4.15,0,0,0,.3,2,1.16,1.16,0,0,0,0,.23h0c.09.51.19,1,.31,1.5l-.89-.17a2.49,2.49,0,0,0-.16-.31c-.13-.2-.26-.4-.41-.6l0,0-.09-.18A4.2,4.2,0,0,1,166.31,39.11Z"/><path class="cls-2" d="M166.76,41.72l0,.05a.58.58,0,0,0,0,.17Z"/><path class="cls-4" d="M166.76,41.72A34.18,34.18,0,0,1,234,29.6"/><path class="cls-4" d="M235.26,29.42v0a35.47,35.47,0,0,0-69.78,12.71"/><path class="cls-4" d="M235.38,29.47a3.62,3.62,0,0,0-.3-.74,1.45,1.45,0,0,1-.65.35,1,1,0,0,1-.2.39l-.12.12,0,0a2.12,2.12,0,0,1,.1.36h0c.76,4.3-12,11.27-32.08,14.84s-34.47,1.39-35.23-2.89h0c0-.06,0-.12,0-.17l0-.05a4.15,4.15,0,0,1-.3-2,4.65,4.65,0,0,1-.16-.61,4.17,4.17,0,0,0-.77,3v0c.36,2,2.7,4.6,11.81,5.46,6.85.65,15.7.11,24.91-1.54S220,41.92,226.24,39c8.26-3.95,9.56-7.18,9.21-9.19C235.43,29.67,235.4,29.58,235.38,29.47Z"/><path class="cls-2" d="M155.44,46a15.11,15.11,0,0,0,4.92,4.33c.43.24.83-.43.39-.67a14.23,14.23,0,0,1-4.63-4.05c-.29-.4-1,0-.67.39Z"/><path class="cls-2" d="M151,49.65q4.13,2.29,8.22,4.63a2.34,2.34,0,0,0,3.48-2c.09-1.78-1.2-2.71-1.8-4.22a5.59,5.59,0,0,1,0-3.9c.69-2.12-2.39-4-3.86-2.25-.44.54-.9,1.06-1.4,1.56s-1,.77-1.35,1.21l-.33.19.88.23c.07,0,.08.24.14.21a8.65,8.65,0,0,0,.81-1.36l-4.23-.55q0-.26-.07,0l4.23.55a4.79,4.79,0,0,1,1-3.66c1.13-1.58-.77-4.11-2.61-3.4-1.36.53-3.5,1.9-5,1.36l1,3.86a20.56,20.56,0,0,1,7-3.51L154.31,37a21,21,0,0,1-.1,6.22l4.54.61a6.85,6.85,0,0,0-.31-3c-.57-1.75-3.31-2.45-4.23-.55l-.26.53a2.37,2.37,0,0,0,.83,3.16,2.33,2.33,0,0,0,3.16-.83l.26-.53L154,42a3.58,3.58,0,0,1,.14,1.74c-.32,2.57,4.11,3.18,4.54.61a28.46,28.46,0,0,0,.1-8.68,2.33,2.33,0,0,0-2.85-1.62,26.4,26.4,0,0,0-9,4.7c-1.5,1.18-.42,3.34,1,3.86,2.52.93,5.1-.46,7.42-1.36l-2.61-3.38a9.38,9.38,0,0,0-1.48,7.23c.35,2,3.31,2.18,4.23.55a4.93,4.93,0,0,0,.53-3.54c-.37-2.14-3.2-2-4.23-.55-1.62,2.31-2.27,5.88.75,7.44s6-1.75,7.77-3.86l-3.86-2.25a10.25,10.25,0,0,0-.28,5.25,9.88,9.88,0,0,0,.85,2.39,7.85,7.85,0,0,0,.59,1q.17.24.35.48l.17.26,3.48-2q-4.11-2.34-8.22-4.63c-2.61-1.44-4.94,2.55-2.33,4Z"/><path class="cls-2" d="M153.68,40a34.81,34.81,0,0,1-3.54,3.9c-.64.6-1.3,1.18-2,1.73l-.75.57-.53.38q-.74.4,0,.19l1.17.32-.22-.12.83.83-.11-.23.32,1.17a7,7,0,0,1,1.43-2.6A9.22,9.22,0,0,1,152.93,44l-3.17-3.16A3.36,3.36,0,0,1,148.61,42c-.32.22-1.34.51-1.54.8s0-.9,0,.33a.37.37,0,0,1,.1.52v0l0-.1c-.13,0,.93-.41.69-.34a7.29,7.29,0,0,1,1-.19c1.63-.26,3.26-.48,4.88-.85q1.14-.26,2.26-.59l1.34-.42.44-.15q.84-.19.09-.18l-1.38-1.06c.48.64.47,2.14.61,3q.31,1.66.59,3.33c.26,1.49,1.16,3.7-.58,4.52a9.43,9.43,0,0,1-5,.77,2.13,2.13,0,0,1-1.5-.94c-.08-.12,0-.17,0-.28a.34.34,0,0,1,.09-.13q-.53,0,.09.05l-2-1.15q0-.64-.19-.27t-.42.6a7.89,7.89,0,0,0-.75,1.25,2.87,2.87,0,0,0,.85,3.74c2.06,1.3,5.32-.26,7.09-1.43a2.4,2.4,0,0,0-1.17-4.4h-4.91v4.88l2.58,0L150.7,49c-1.53,1.07-3.35.66-5,0a9.1,9.1,0,0,1-1.37-.7c-.49-.32-.32-.35-.34-.1a5.42,5.42,0,0,1,.73-1.4l.82-1.6-4.19-.55c-.12-.74,0-.29-.14-.09a3.05,3.05,0,0,0-.41,1,3.73,3.73,0,0,0-.19,2.12c.45,1.83,2.14,2.47,3.82,2.67a16.42,16.42,0,0,0,9.28-1.94,35.33,35.33,0,0,0,8-5.6c2.56-2.36,4.07-5.34,3.59-8.85-.17-1.27-1.75-1.84-2.82-1.6l-5.13,1.17c-2.87.66-1.66,5.07,1.22,4.42l5.13-1.17-2.81-1.62c.23,1.73-1.27,3.34-2.41,4.39A33.15,33.15,0,0,1,154,42.86c-2.69,1.75-6.84,4-10.14,2.63l1,.59c1.06.87-.16,1.37.25.76a5.14,5.14,0,0,0,.48-1.11,4.49,4.49,0,0,0,.13-2.33c-.33-1.94-3.35-2.19-4.2-.54s-2.27,3.59-2.21,5.5,1.65,3.38,3.31,4.23c3.16,1.61,7.19,2.54,10.32.36,1.78-1.23,1.27-4.31-1.16-4.27l-2.69,0c-2.95,0-3,4.62,0,4.58h5L153,48.84a6.3,6.3,0,0,1-3.31,1.27l1.17.32-.28-.15,1.06,1.38-.07-.28v1.23c.17-.84,1.08-1.62,1.39-2.48a4.23,4.23,0,0,0-.22-3.52,2.32,2.32,0,0,0-2-1.15,4.79,4.79,0,0,0-4.83,4.68,6,6,0,0,0,4.19,5.48c2.35.86,5.25.41,7.59-.31s4.42-2.2,4.92-4.69-.42-5.57-.89-8.13-.59-6.76-4.14-6.17c-1.26.21-2.49.77-3.73,1.1a42,42,0,0,1-4.11.89c-2.51.41-5.2.57-6.58,3.05a4.12,4.12,0,0,0,3.55,6.09c2.69.13,5.79-2,7-4.33A2.33,2.33,0,0,0,150.58,40a13.94,13.94,0,0,0-4.78,4.61c-1.14,1.82-2.67,5.05-.19,6.49,2.26,1.31,4.71-1.2,6.32-2.54a34.31,34.31,0,0,0,5-5.24,2.39,2.39,0,0,0,0-3.27,2.33,2.33,0,0,0-3.27,0Z"/><path class="cls-2" d="M156,44a34,34,0,0,0,6.54,11.46c1.06,1.23,3.62.67,3.86-1a17.18,17.18,0,0,0-.53-7.94c-.42-1.27-1.09-2.41-1.59-3.64-.14-.35-.63-1.45-.16-1.74l-3.48-2c.16,3.19.39,6.57,2.06,9.39a9.07,9.07,0,0,0,7.25,4.63,2.33,2.33,0,0,0,2-3.48,22.2,22.2,0,0,0-11.49-9,2.33,2.33,0,0,0-2.85,1.62c-.71,3.34,1.27,6.17,4.15,7.71s6.23,2.67,9.32,4l-1.7-2.23c0-2.09.84-.77.26-.85a4,4,0,0,0-.85.14c-.83.11-1.67.2-2.51.28q-2.38.24-4.78.36c-3.28.17-6.55.17-9.83,0-2.57-.11-3.19,4-.61,4.54a146.74,146.74,0,0,0,24.5,2.91q6.08.2,12.16-.12,3-.16,5.94-.44c2.14-.2,4-.31,5.33-2.14,1.09-1.46-.4-3.48-2-3.48a181.27,181.27,0,0,1-27.13-2.07v4.46Q178.43,54,187.07,53a2.31,2.31,0,0,0,0-4.63l-22.75-2.81,1.17,4.31c2-.88,4.83.47,6.77,1a70,70,0,0,0,8.34,1.49c5.66.74,11.41,1.52,17.12,1.23L197.11,49a118.87,118.87,0,0,1-13.57,1c-3,.06-2.94,4.41,0,4.63a89.42,89.42,0,0,0,26.92-2.11l-1.23-4.46a119.37,119.37,0,0,1-22.53,4.43,2.34,2.34,0,0,0-2.27,2,2.29,2.29,0,0,0,1.66,2.54,64,64,0,0,0,35.76-4.6c2.2-1,1-4.3-1.17-4.31H183.81s-3,4.39,0,4.37h36.9l-1.17-4.08a58.26,58.26,0,0,1-32.18,4.13l-.61,4.54c8-1,16-2.12,23.75-4.6a2.32,2.32,0,0,0-1.23-4.46A85.6,85.6,0,0,1,183.46,50v4.63a129.34,129.34,0,0,0,14.92-1.18c2.57-.35,2-4.67-.61-4.54a94,94,0,0,1-18-1.35,65.64,65.64,0,0,1-8.27-1.77c-2.85-.8-5.55-1.17-8.33.05a2.33,2.33,0,0,0-1.06,2.61,2.43,2.43,0,0,0,2.23,1.7L187.06,53v-4.6q-9.24,1.08-18.45,2.42c-2.22.32-2.2,4.11,0,4.46A189.41,189.41,0,0,0,197,57.51L195,54l-.21.28.83-.83a3.64,3.64,0,0,1-2,.41l-2.72.23q-2.72.21-5.45.31-5.58.21-11.17,0a138.92,138.92,0,0,1-22-2.7l-.61,4.54A103.46,103.46,0,0,0,164.5,56a42.56,42.56,0,0,0,6.18-.7,3.86,3.86,0,0,0,3.3-3.65,2.4,2.4,0,0,0-1.7-2.23c-2.27-.94-4.54-1.86-6.8-2.83-1.13-.48-3.79-1.48-3.44-3.13l-2.85,1.62A17.08,17.08,0,0,1,167.93,52l2-3.48c-4.23-.28-4.52-6.37-4.68-9.4a2.34,2.34,0,0,0-3.48-2c-2.84,1.76-2.83,5.1-1.59,7.86s2.19,5.2,1.74,8.22l3.86-1a28.13,28.13,0,0,1-5.35-9.41C159.5,39.94,155,41.15,156,44Z"/><path class="cls-2" d="M191.52,52.55l26.63-2.86a2.38,2.38,0,0,0,2.31-2.31,2.33,2.33,0,0,0-2.31-2.31l-31.86,3.2v4.62l43.35-4.45L228,44.49c-3.92,3.47-9.05,5.25-14.18,5.93a54.21,54.21,0,0,1-8.69.33,22.87,22.87,0,0,1-3.71-.24,4.08,4.08,0,0,1-1.1-.33c-.41-.22-.39-.58-.3,0l-1.15,2a32,32,0,0,1,6.64-1.86l7.43-1.59,14.86-3.18c2.91-.62,1.68-5.08-1.23-4.46l-15.35,3.29c-4.89,1-10.09,1.72-14.67,3.81a2.23,2.23,0,0,0-1.15,2c.44,3.3,3.16,4.62,6.21,5a54.09,54.09,0,0,0,10.78,0c6.91-.63,13.62-2.77,18.89-7.44,1.43-1.26.36-4.15-1.63-3.95L186.3,48.27A2.38,2.38,0,0,0,184,50.58a2.33,2.33,0,0,0,2.31,2.31l31.86-3.2V45.07l-26.64,2.85a2.38,2.38,0,0,0-2.31,2.31A2.33,2.33,0,0,0,191.52,52.55Z"/><path class="cls-2" d="M217.5,48.84a87.73,87.73,0,0,0,10.67-2.54c3.39-1,7.08-2.06,9.9-4.27,1.9-1.48-.18-4.45-2.25-3.86l-12.45,3.47c-2,.55-3.91,1.12-5.89,1.57a39.5,39.5,0,0,1-6,.73c-4.17.3-8.31,1.54-12.41,2.34q-3.21.63-6.43,1.21l-3,.51a4.59,4.59,0,0,0-1.49.26c-.42.3-.67-.54.08.45l-2,3.48q4.93-.43,9.88-.71c3-.17,3-4.8,0-4.63q-4.95.29-9.88.71c-1.54.13-3.15,1.94-2,3.48,1.34,1.8,3.06,2,5.14,1.67,2.31-.35,4.63-.8,6.94-1.23,4.61-.85,9.18-2.06,13.8-2.78,2.23-.35,4.49-.28,6.72-.66a66.26,66.26,0,0,0,6.54-1.61L237,42.62l-2.25-3.86a14.36,14.36,0,0,1-4,1.8q-2.36.85-4.76,1.56a87.59,87.59,0,0,1-9.77,2.27,2.33,2.33,0,0,0-1.62,2.85,2.37,2.37,0,0,0,2.85,1.62Z"/><path class="cls-2" d="M212.43,47.77c8.16-1.5,15.87-4.33,23.57-7.32a2.38,2.38,0,0,0,1.62-2.85A2.33,2.33,0,0,0,234.77,36c-7.71,3-15.42,5.82-23.57,7.32a2.34,2.34,0,0,0-1.62,2.85,2.37,2.37,0,0,0,2.85,1.62Z"/><path class="cls-2" d="M227,42.78a32.47,32.47,0,0,0,9.6-5.34c2.75-2.4,3.24-5.84,3.41-9.29.15-3-4.47-3-4.63,0-.12,2.38-.3,4.65-2.31,6.23a29.25,29.25,0,0,1-7.31,3.94,2.38,2.38,0,0,0-1.62,2.85A2.33,2.33,0,0,0,227,42.78Z"/><path class="cls-2" d="M238,24.68q.75.58,0-.41l.32-1.17.26-.19a6.17,6.17,0,0,1-.54.3.59.59,0,0,1-.29.12q-.21.07,0-.07a2.34,2.34,0,0,0-2.93,2.23,4.35,4.35,0,0,1-.28,1.08h4.46a26.63,26.63,0,0,0-2.22-6.92l-2,3.48,5.58.51a28.2,28.2,0,0,1,5.4.77c3,.89,4.08,3.21,4.4,6.17a2.38,2.38,0,0,0,2.31,2.31,2.33,2.33,0,0,0,2.31-2.31c-.45-4.27-1.91-8.15-6.09-10A21.37,21.37,0,0,0,242,19.18c-2.43-.23-4.86-.44-7.28-.66-1.91-.17-2.67,2.06-2,3.48a22.36,22.36,0,0,1,1.76,5.81c.41,2.44,3.78,1.94,4.46,0a9.13,9.13,0,0,0,.45-2.31l-2.93,2.23a5.39,5.39,0,0,0,5.51-1.8c1.45-2,.16-4.11-1.64-5.26-2.52-1.61-4.84,2.4-2.33,4Z"/><path class="cls-2" d="M234.64,48.79q1.7-1.57,3.3-3.24c1.5-1.57,0-4.69-2.25-3.86a12.4,12.4,0,0,0-6.6,5.36c-1.26,2.12,1.18,4.11,3.16,3.16a27.09,27.09,0,0,0,8.7-6.45,7.21,7.21,0,0,0,2.17-5.22c-.05-.94-.26-1.86-.26-2.8a30.38,30.38,0,0,1,.22-3.39,2.29,2.29,0,0,0-2-2.27,2.36,2.36,0,0,0-2.54,1.66l-3.17,7.88,4.46,1.23c1.94-4.9,5.11-11.43,2.31-16.56l-3.63,2.8a93.45,93.45,0,0,0,8.3,6.49c1.5,1,3.45-.36,3.48-2a11,11,0,0,0-7.38-10.54l-1.25,4.43c.39.13,4.27,1.47,4.31,1.4s-.45-.4-.33-.42l-.39.74c-.41.68-.86,1.34-1.29,2l-5.4,8.41,4.23,1.78a36.86,36.86,0,0,1,.81-3.73,12.53,12.53,0,0,1,.51-1.7c.11-.26.45-.55.09-.41l-2.85-1.62c.79,2,0,4.41-.65,6.33-.71,2.17-1.64,4.27-2.52,6.38a2.33,2.33,0,0,0,1.62,2.85c2,.41,3.74-.43,5.48-1.41a13.65,13.65,0,0,0,4.22-3.45c2.59-3.38,1.92-7.57.89-11.4-.49-1.83-3.32-2.37-4.23-.55a21.36,21.36,0,0,0-1.83,5.94c-.17,1-.32,1.95-.54,2.91a9.78,9.78,0,0,0-.24,1q-.33.55-.14.26.88.06.18-.15v4.46c3.41-1.14,6.81-2.37,9.65-4.63a7.4,7.4,0,0,0,3-4.26,4.85,4.85,0,0,0-.3-2.9c-.35-.81-1-1.41-1.38-2.21-.87-1.83-3.76-1.29-4.23.55a15.18,15.18,0,0,1-1.9,4.42c-1,1.62-1.69,3-1.4,4.94.22,1.51,2.24,2.06,3.4,1.38,4.14-2.42,7.37-6.84,6.94-11.82-.45-5.16-4.24-8.18-8.41-10.62l-1.17,4.3a28.56,28.56,0,0,1,9.6,2.57,20.29,20.29,0,0,1,4,2.29c1.18.94,1.33,2.35,1.48,3.75a2.35,2.35,0,0,0,3.95,1.63,4,4,0,0,0,1.08-4.38,5.82,5.82,0,0,0-3.64-3.39c-3.48-1.44-6.54-3.55-10.47-3-1.68.24-2.27,2.83-1,3.86.68.57,1.86,1,2.31,1.73a3,3,0,0,1,.08,2.54c-.91,2.35-3.43,3.46-4.56,5.65a2.35,2.35,0,0,0,2,3.48c6.26.59,10.62-6.63,10.54-12.11l-3.46,2c2,.92.91,3.41-.2,4.63-2.06,2.3-4.73,3.81-6.6,6.32-1.3,1.75.84,3.78,2.61,3.4,5.37-1.14,8-6.72,11.4-10.46l-3.62-.47c-.26-.49.24-.84-.24-.4a8.1,8.1,0,0,0-.51.64,14.16,14.16,0,0,1-1.33,1.34,12.94,12.94,0,0,1-3.05,1.9,2.33,2.33,0,0,0-.83,3.16,2.36,2.36,0,0,0,3.16.83c3.24-1.52,8.92-5.64,6.79-9.81a2.33,2.33,0,0,0-3.63-.47c-1.54,1.72-2.83,3.64-4.29,5.42-1.34,1.63-2.92,3.4-5.06,3.86l2.61,3.4c2.3-3.08,6.14-4.53,7.8-8.19,1.42-3.14.77-7.53-2.66-9.09a2.34,2.34,0,0,0-3.48,2c0,3.11-2.2,7.83-5.91,7.48l2,3.48c.7-1.37,2.22-2.28,3.18-3.5A9.61,9.61,0,0,0,259.89,32a7.61,7.61,0,0,0-.65-4.71,6,6,0,0,0-1.41-1.82c-.55-.47-1.26-.71-1.8-1.16l-1,3.86c1.94-.28,4,1.29,5.64,2a18.28,18.28,0,0,1,2.48,1.06,2.89,2.89,0,0,1,.4.33c-.34,0,.71-1,0-.39l3.95,1.63c-.24-2.21-.54-4.37-2-6.15a15.24,15.24,0,0,0-5-3.49,34.68,34.68,0,0,0-12.74-3.6c-2.37-.21-3,3.22-1.17,4.31,2.61,1.54,5.79,3.38,6.12,6.72s-1.9,6.14-4.65,7.74l3.4,1.38s.58-.83.7-1a19.56,19.56,0,0,0,1.09-1.87,20.37,20.37,0,0,0,1.5-4l-4.23.55c.36.76,1.44,1.43,1,2.23A6.9,6.9,0,0,1,249,37.72a31.47,31.47,0,0,1-6.68,2.83c-2.3.77-2.06,3.6,0,4.46,2.91,1.22,5.25-1.56,5.84-4.11s.71-5.47,1.94-7.93l-4.23-.55c.6,2.23,1.48,5,.07,7.14a7.21,7.21,0,0,1-2.22,2c-.56.35-2.23,1.54-2.76,1.44l1.62,2.85a73.83,73.83,0,0,0,2.79-7.26c.71-2.44,1.35-5.47.38-7.92A2.35,2.35,0,0,0,242.95,29c-3.51,1.32-4.11,5.81-4.65,9.08a2.33,2.33,0,0,0,4.23,1.78L246.31,34a54.39,54.39,0,0,0,3.28-5.19,4.51,4.51,0,0,0-.73-5.53c-1.5-1.32-4.14-1.71-6-2.31-2.86-.93-4,3.45-1.23,4.46a6.34,6.34,0,0,1,4,6.09l3.49-1.95a82.83,82.83,0,0,1-7.36-5.76,2.32,2.32,0,0,0-3.63,2.8c1,1.83.26,4.17-.27,6-.68,2.37-1.59,4.67-2.5,7A2.34,2.34,0,0,0,237,42.46a2.37,2.37,0,0,0,2.85-1.62L243,33l-4.54-.61a23.42,23.42,0,0,0,0,5.45,3.46,3.46,0,0,1,0,1.64,5.45,5.45,0,0,1-1.3,1.67,24.14,24.14,0,0,1-7.2,5.11l3.16,3.16a7.37,7.37,0,0,1,3.83-3.23l-2.25-3.86q-1.6,1.67-3.3,3.24c-2.19,2,1.09,5.29,3.27,3.27Z"/><path class="cls-2" d="M220.88,54.79a53.11,53.11,0,0,0,11.48-2.88c3.67-1.34,7.26-2.87,11-4l-1.78-4.23c-2.76,2.08-5.49,4.22-8.32,6.21a18.24,18.24,0,0,1-8.06,3.62L226.44,58A68.66,68.66,0,0,0,256,43.1L252,41.47c-.2,1.49-3.17,2.39-4.27,2.89-2.08.95-4.19,2.18-6.45,2.57l1.23,4.46c2.83-1.09,5.61-2.29,8.33-3.63q1.9-.94,3.77-2c1.23-.67,2.63-1.48,2.83-3A2.39,2.39,0,0,0,255.85,40,2.33,2.33,0,0,0,253,41.57q.74-.65.11-.22l-.83.46-1.66.89q-1.47.77-3,1.48-3.14,1.5-6.38,2.75a2.32,2.32,0,0,0,1.23,4.46c3.05-.54,6.05-2.33,8.84-3.63s4.86-3.14,5.28-6.3c.29-2.19-2.62-2.78-3.95-1.63a63.79,63.79,0,0,1-27.5,13.68,2.34,2.34,0,0,0-1.62,2.85A2.38,2.38,0,0,0,226.42,58a20.62,20.62,0,0,0,8.81-3.84c3-2.06,5.79-4.29,8.67-6.46a2.35,2.35,0,0,0,.95-2.89,2.31,2.31,0,0,0-2.73-1.34c-7.1,2.16-13.79,5.75-21.24,6.71a2.39,2.39,0,0,0-2.31,2.31A2.33,2.33,0,0,0,220.88,54.79Z"/><path class="cls-2" d="M179.41,60c6.52,4.17,15.07,1.6,22.08.31q6-1.1,12-2.36,2.86-.6,5.71-1.24l3-.68,1.48-.34.74-.17q.9-.18.19-.08l-1-.59.19.21L223,53.43v.34l.32-1.17A5.12,5.12,0,0,1,222,53c-.77.21-1.54.4-2.33.59q-2.42.6-4.85,1.15-4.73,1.06-9.53,1.89a146.4,146.4,0,0,1-19.43,2c-3,.1-3,4.73,0,4.63a171.45,171.45,0,0,0,36.5-5.56A11.8,11.8,0,0,0,226,56.36c1.51-1,2.29-3.06.95-4.55a3.48,3.48,0,0,0-3.6-.79c-1.57.34-3.13.73-4.7,1.08q-9.16,2.06-18.4,3.77c-3.34.62-6.72,1.36-10.11,1.67-2.94.27-5.87.11-8.41-1.51s-4.84,2.4-2.33,4Z"/><path class="cls-2" d="M185.25,64c7.49.94,15.16-.86,22.49-2.31q5.51-1.09,11-2.36c3.49-.81,7.16-1.48,10.32-3.25,2.6-1.45.27-5.45-2.33-4-2.92,1.63-6.48,2.15-9.7,2.89q-5.22,1.21-10.49,2.25c-6.94,1.38-14.14,3-21.26,2.14a2.33,2.33,0,0,0-2.31,2.31A2.37,2.37,0,0,0,185.25,64Z"/><path class="cls-2" d="M149,51.16A10.44,10.44,0,0,0,155.4,58a45.1,45.1,0,0,0,10.34,2.63c7.37,1,14.87.11,22.21,1.29a2.39,2.39,0,0,0,2.85-1.62,2.33,2.33,0,0,0-1.62-2.85c-6.76-1.08-13.58-.51-20.38-1.09a49.88,49.88,0,0,1-9.47-1.94c-2.6-.74-5-1.66-5.87-4.47S148.14,48.3,149,51.16Z"/><path class="cls-2" d="M150,56.69a13.83,13.83,0,0,0,7.62,4.93,63.23,63.23,0,0,0,10.83,2.33,65.16,65.16,0,0,0,11.4,0q5.85-.34,11.7-.71c3-.18,3-4.81,0-4.63L181,59.25a88.08,88.08,0,0,1-10.67.26,52.2,52.2,0,0,1-9.92-1.88c-2.25-.59-5.06-1.26-6.5-3.26a2.38,2.38,0,0,0-3.16-.83A2.33,2.33,0,0,0,150,56.7Z"/><path class="cls-2" d="M149.88,60.45c2.65,2,6,2.31,9.18,2.78,3.6.51,7.15,1.32,10.75,1.83a44.13,44.13,0,0,0,11.08.26q5.78-.62,11.58-1.29a2.38,2.38,0,0,0,2.31-2.31,2.33,2.33,0,0,0-2.31-2.31c-7.11.78-14.35,2.16-21.5,1.17-3.42-.48-6.79-1.23-10.2-1.75-2.93-.44-6.12-.51-8.55-2.39a2.32,2.32,0,0,0-3.16.83,2.37,2.37,0,0,0,.83,3.16Z"/><path class="cls-2" d="M140.49,43c-2.79.73-4.44,3.74-5,6.37-.66,2.87-.46,6,2.07,7.89a19.34,19.34,0,0,0,7.62,3.26c2.65.51,6.19,1,8.41-.82a2.33,2.33,0,0,0,0-3.26c-1.43-1.49-3.29-1.93-5.15-2.62s-2.91-2.08-4.35-3.19c-1.6-1.23-4.26-2.59-5.76-.48-1.64,2.3.82,4.69,3,5.24,2.88.72,4.1-3.72,1.23-4.45-.9-.23-.05-.27-.11.6l-.68,1.62.15-.18-1,.59.24,0h-1.21c1.9.41,3.33,2.61,4.93,3.63s4.12,1.09,5.49,2.51V56.47c.41-.35-.26-.13-.51-.12q-.64,0-1.28,0A14.5,14.5,0,0,1,146,56a16.3,16.3,0,0,1-4.78-1.86c-.5-.29-1.13-.54-1.35-1.1a4.37,4.37,0,0,1,0-2c.16-1,.75-3.26,1.9-3.56,2.87-.77,1.65-5.2-1.23-4.45Z"/><path class="cls-2" d="M137.32,55.24c.24,1.29,0,2.49.73,3.69.88,1.38,2.44,1.82,3.92,2.22q4.94,1.31,9.89,2.59c6.54,1.69,13.15,3.38,19.93,2.16A2.34,2.34,0,0,0,173.41,63a2.37,2.37,0,0,0-2.85-1.62c-5.55,1-11.17-.53-16.51-1.91q-4.12-1.06-8.2-2.14l-2.17-.57c-.4-.11-1.53-.63-1.88-.51-.2.06.19,0,.19.23a4,4,0,0,1,0-.45,6.83,6.83,0,0,0-.19-2.06,2.34,2.34,0,0,0-2.85-1.62,2.37,2.37,0,0,0-1.62,2.85Z"/><path class="cls-2" d="M164.73,32.5s0,.11,0,.13,0,0,0,0a2.57,2.57,0,0,0,.41-.23l-1.05-1.05a1.62,1.62,0,0,0-.16.68.77.77,0,0,0,0,.23q0,.26.16-.11,0-.19.18-.2s-.32,0-.38-.06a.73.73,0,0,1-.26-.17.8.8,0,0,0-1.05-.28.78.78,0,0,0-.28,1.05,2.31,2.31,0,0,0,2,1,1.22,1.22,0,0,0,1-.53,1.26,1.26,0,0,0,.16-.62v-.18c0-.14,0-.26-.06,0A.78.78,0,0,0,164.36,31a2.12,2.12,0,0,0-1,.86,1.36,1.36,0,0,0,0,1.39.79.79,0,0,0,1.05.28.77.77,0,0,0,.28-1.05Z"/><path class="cls-2" d="M232,18.83c.17-.86.89-.42.52-.46h-.12a1.26,1.26,0,0,0-.41,0,.94.94,0,0,0-.66,1.11,2.47,2.47,0,0,0,1.37,1.5.8.8,0,0,0,1.07-.28.78.78,0,0,0-.28-1.07l-.28-.15c-.09-.05-.09-.06,0,0l-.12-.11-.11-.12,0,0-.08-.14q-.1-.21,0,.14l-.11.39a.54.54,0,0,1-.42.28h.31a.91.91,0,0,0,.86-.68.78.78,0,0,0-1.51-.42Z"/></g><g id="lights"><ellipse class="cls-5" cx="174.09" cy="41.11" rx="1.72" ry="2.58" transform="translate(121.26 212.01) rotate(-86.11)"/><ellipse class="cls-5" cx="226.73" cy="31.76" rx="2.58" ry="1.72" transform="translate(6.72 95.08) rotate(-24.03)"/><ellipse class="cls-5" cx="210.39" cy="37.39" rx="2.58" ry="1.72" transform="translate(-2.05 60.4) rotate(-16.26)"/><ellipse class="cls-5" cx="192.34" cy="41.01" rx="2.58" ry="1.72" transform="translate(-2.47 14.06) rotate(-4.16)"/></g></g></g></g></svg>