<svg xmlns="http://www.w3.org/2000/svg" viewBox="0 0 390.98 20.81"><defs><style>.cls-1{fill:#3fc;}</style></defs><title>mobile_logo_2</title><g id="Layer_2" data-name="Layer 2"><g id="nav_icons"><g id="nav"><path class="cls-1" d="M6.85,16.14A5.4,5.4,0,0,1,6,19.53a3.17,3.17,0,0,1-2.62,1.07,3.23,3.23,0,0,1-2.55-.92A5,5,0,0,1,0,16.38V3.78Q0,.21,3.37.21A4.33,4.33,0,0,1,6,.86a3.17,3.17,0,0,1,.88,2.65Z"/><path class="cls-1" d="M29.78,17.78A2.77,2.77,0,0,1,29,19.85a3.1,3.1,0,0,1-2.26.76,3.43,3.43,0,0,1-.77-.09,3.19,3.19,0,0,1-.82-.33q-.43-.24-.76-.45a7,7,0,0,1-.82-.64l-.77-.68-.88-.82-.86-.83L15.6,11.61v6.46a2.77,2.77,0,0,1-.55,2,2.42,2.42,0,0,1-1.74.54,2.72,2.72,0,0,1-1.94-.6,2.67,2.67,0,0,1-.62-2V3.63a3.47,3.47,0,0,1,.86-2.56A3.35,3.35,0,0,1,14.08.21a3.92,3.92,0,0,1,1.77.34,7.17,7.17,0,0,1,1.59,1.24L25,9.29V2.8A2.61,2.61,0,0,1,25.62.88,2.35,2.35,0,0,1,27.37.24a2.46,2.46,0,0,1,1.85.6,2.76,2.76,0,0,1,.57,1.94Z"/><path class="cls-1" d="M45.35,16.14a7.15,7.15,0,0,1-.42,2.69,2.63,2.63,0,0,1-1.15,1.38,4.1,4.1,0,0,1-1.92.39,3.15,3.15,0,0,1-2.55-.94,5.37,5.37,0,0,1-.82-3.32l-.06-11H35.91a5.32,5.32,0,0,1-2.81-.6,2.31,2.31,0,0,1-.94-2.11,2.52,2.52,0,0,1,.37-1.46A2,2,0,0,1,33.65.43a7.17,7.17,0,0,1,2-.22H48.39A3.88,3.88,0,0,1,50.8.8a2.49,2.49,0,0,1,.74,2.05,2.43,2.43,0,0,1-.43,1.53A2.19,2.19,0,0,1,50,5.15a6.75,6.75,0,0,1-1.85.21H45.35Z"/><path class="cls-1" d="M66.67,8.52A3.67,3.67,0,0,1,68.89,9a2.08,2.08,0,0,1,.64,1.73,1.53,1.53,0,0,1-.76,1.44,5,5,0,0,1-2.37.43H61.58v3.16l6.46,0a4.43,4.43,0,0,1,2.4.49A2,2,0,0,1,71.17,18a2.22,2.22,0,0,1-.85,2,4.69,4.69,0,0,1-2.58.57H58.1a3.24,3.24,0,0,1-2.58-.94,5.11,5.11,0,0,1-.82-3.32V3.78Q54.7.21,58.1.21h9.65a4.91,4.91,0,0,1,2.58.54,2.11,2.11,0,0,1,.85,1.94,2.1,2.1,0,0,1-.73,1.83A4.22,4.22,0,0,1,68,5H61.55V8.52Z"/><path class="cls-1" d="M81.32,16.14q0,4.47-3.48,4.47a3.25,3.25,0,0,1-2.58-.94,5.12,5.12,0,0,1-.82-3.32V3.78a3.5,3.5,0,0,1,.94-2.64A3.38,3.38,0,0,1,77.84.24h6.25A9.56,9.56,0,0,1,90,2a5.28,5.28,0,0,1,2.26,4.39,5.24,5.24,0,0,1-.85,3.17,4.94,4.94,0,0,1-2.72,1.68,4,4,0,0,1,2.65,1.38,4.53,4.53,0,0,1,1.22,3.23,9.55,9.55,0,0,1-.37,3,2.39,2.39,0,0,1-1.06,1.41,4.26,4.26,0,0,1-1.94.36,3.8,3.8,0,0,1-2.58-.73,2.82,2.82,0,0,1-.82-2.22,8.81,8.81,0,0,0-.36-2.84,2.23,2.23,0,0,0-.92-1.3,3.44,3.44,0,0,0-1.58-.3l-1.64,0Zm4.56-10a2,2,0,0,0-1-2,8.28,8.28,0,0,0-3.51-.54V8.78a7.77,7.77,0,0,0,3.44-.58A2.13,2.13,0,0,0,85.88,6.13Z"/><path class="cls-1" d="M104.28,0a11.81,11.81,0,0,1,6,1.46q2.5,1.46,2.5,3.1a1.42,1.42,0,0,1-.19.76,1.14,1.14,0,0,1-.48.45,1.41,1.41,0,0,1-.61.13,4,4,0,0,1-1.61-.55q-1.07-.55-2.38-1.1a6.29,6.29,0,0,0-2.41-.55q-1.76,0-1.76,1.43a1.45,1.45,0,0,0,.28.85,3.62,3.62,0,0,0,.91.83,14.07,14.07,0,0,0,1.22.76l1.64.88q1,.55,1.76,1a11,11,0,0,1,3.22,2.5,4.35,4.35,0,0,1,.92,2.74q0,6.16-8.31,6.16a15.16,15.16,0,0,1-3.17-.33,12.48,12.48,0,0,1-2.68-.86,11.5,11.5,0,0,1-2-1.19,5.42,5.42,0,0,1-1.33-1.34,2.38,2.38,0,0,1-.45-1.28,1.58,1.58,0,0,1,.43-1.12,1.65,1.65,0,0,1,1.27-.46,13.88,13.88,0,0,1,3,.79,12.92,12.92,0,0,0,3.84.79q1.34,0,1.34-.92a1.15,1.15,0,0,0-.1-.49,1.41,1.41,0,0,0-.36-.45,4.23,4.23,0,0,0-.57-.42l-.86-.49-1.1-.6-1.44-.77q-.89-.48-1.73-1a7,7,0,0,1-1.89-1.55,6.52,6.52,0,0,1-1.15-1.83,4.62,4.62,0,0,1-.36-1.68,4.8,4.8,0,0,1,2.23-4.08A10.89,10.89,0,0,1,104.28,0Z"/><path class="cls-1" d="M127.9,16.14a7.15,7.15,0,0,1-.42,2.69,2.63,2.63,0,0,1-1.15,1.38,4.1,4.1,0,0,1-1.92.39,3.15,3.15,0,0,1-2.55-.94,5.37,5.37,0,0,1-.82-3.32l-.06-11h-2.53a5.32,5.32,0,0,1-2.81-.6,2.31,2.31,0,0,1-.94-2.11,2.52,2.52,0,0,1,.37-1.46,2,2,0,0,1,1.12-.76,7.17,7.17,0,0,1,2-.22h12.75a3.88,3.88,0,0,1,2.41.6,2.49,2.49,0,0,1,.74,2.05,2.43,2.43,0,0,1-.43,1.53,2.19,2.19,0,0,1-1.15.76,6.75,6.75,0,0,1-1.85.21H127.9Z"/><path class="cls-1" d="M149.22,8.52a3.67,3.67,0,0,1,2.22.51,2.08,2.08,0,0,1,.64,1.73,1.53,1.53,0,0,1-.76,1.44,5,5,0,0,1-2.37.43h-4.82v3.16l6.46,0a4.43,4.43,0,0,1,2.4.49,2,2,0,0,1,.73,1.74,2.22,2.22,0,0,1-.85,2,4.69,4.69,0,0,1-2.58.57h-9.65a3.24,3.24,0,0,1-2.58-.94,5.11,5.11,0,0,1-.82-3.32V3.78q0-3.57,3.39-3.57h9.65a4.91,4.91,0,0,1,2.58.54,2.11,2.11,0,0,1,.85,1.94A2.1,2.1,0,0,1,153,4.51a4.22,4.22,0,0,1-2.4.52H144.1V8.52Z"/><path class="cls-1" d="M160.92,20.61a5.38,5.38,0,0,1-2.2-.43,2.6,2.6,0,0,1-1.25-1.33,6.1,6.1,0,0,1-.42-2.47V3.78A3.64,3.64,0,0,1,158,1.21a3.17,3.17,0,0,1,2.44-1A4.31,4.31,0,0,1,163,.86a3.24,3.24,0,0,1,.85,2.65V15.45H169a4.31,4.31,0,0,1,2.43.51,2.46,2.46,0,0,1,.7,2.08q0,1.61-.8,2.08a5.38,5.38,0,0,1-2.62.48Z"/><path class="cls-1" d="M179,20.61a5.38,5.38,0,0,1-2.2-.43,2.6,2.6,0,0,1-1.25-1.33,6.1,6.1,0,0,1-.42-2.47V3.78a3.64,3.64,0,0,1,.92-2.58,3.17,3.17,0,0,1,2.44-1,4.31,4.31,0,0,1,2.64.66A3.24,3.24,0,0,1,182,3.51V15.45h5.09a4.31,4.31,0,0,1,2.43.51,2.46,2.46,0,0,1,.7,2.08q0,1.61-.8,2.08a5.38,5.38,0,0,1-2.62.48Z"/><path class="cls-1" d="M204.51,16.08h-4.94v1.58a2.84,2.84,0,0,1-.8,2.23,4.18,4.18,0,0,1-2.77.71,3.39,3.39,0,0,1-1.37-.24,2.3,2.3,0,0,1-.94-.8,4.12,4.12,0,0,1-.6-1.65,24.56,24.56,0,0,1-.3-2.62q-.11-1.53-.1-3.89a15.38,15.38,0,0,1,.43-3.77,10.4,10.4,0,0,1,1.16-2.9,10.94,10.94,0,0,1,1.65-2.1,7.2,7.2,0,0,1,2-1.41,11.65,11.65,0,0,1,2.11-.76,8.63,8.63,0,0,1,2.07-.25,9.12,9.12,0,0,1,2.47.34,8.74,8.74,0,0,1,2.47,1.18,9,9,0,0,1,2.19,2.07A10.11,10.11,0,0,1,210.8,7a15.19,15.19,0,0,1,.6,4.41,43.23,43.23,0,0,1-.28,5.82,5.15,5.15,0,0,1-1,2.64,2.65,2.65,0,0,1-2.07.74,4.18,4.18,0,0,1-2.77-.71,2.84,2.84,0,0,1-.8-2.23Zm-2.44-11a2.3,2.3,0,0,0-1.89.74,4.29,4.29,0,0,0-.61,2.65V12h4.94V8.4a5.62,5.62,0,0,0-.3-2,1.92,1.92,0,0,0-.82-1A2.76,2.76,0,0,0,202.07,5.06Z"/><path class="cls-1" d="M221.28,16.14q0,4.47-3.48,4.47a3.25,3.25,0,0,1-2.58-.94,5.12,5.12,0,0,1-.82-3.32V3.78a3.5,3.5,0,0,1,.94-2.64A3.38,3.38,0,0,1,217.8.24H224A9.56,9.56,0,0,1,230,2a5.28,5.28,0,0,1,2.26,4.39,5.24,5.24,0,0,1-.85,3.17,4.94,4.94,0,0,1-2.72,1.68,4,4,0,0,1,2.65,1.38,4.53,4.53,0,0,1,1.22,3.23,9.55,9.55,0,0,1-.37,3,2.39,2.39,0,0,1-1.06,1.41,4.26,4.26,0,0,1-1.94.36,3.8,3.8,0,0,1-2.58-.73,2.82,2.82,0,0,1-.82-2.22,8.81,8.81,0,0,0-.36-2.84,2.23,2.23,0,0,0-.92-1.3,3.44,3.44,0,0,0-1.58-.3l-1.64,0Zm4.56-10a2,2,0,0,0-1-2,8.28,8.28,0,0,0-3.51-.54V8.78a7.77,7.77,0,0,0,3.44-.58A2.13,2.13,0,0,0,225.84,6.13Z"/><path class="cls-1" d="M250.76,16.14q0,4.47-3.48,4.47a3.25,3.25,0,0,1-2.58-.94,5.12,5.12,0,0,1-.82-3.32V3.78a3.5,3.5,0,0,1,.94-2.64,3.38,3.38,0,0,1,2.46-.91h6.25A9.56,9.56,0,0,1,259.45,2a5.28,5.28,0,0,1,2.26,4.39,5.24,5.24,0,0,1-.85,3.17,4.94,4.94,0,0,1-2.72,1.68,4,4,0,0,1,2.65,1.38A4.53,4.53,0,0,1,262,15.81a9.55,9.55,0,0,1-.37,3,2.39,2.39,0,0,1-1.06,1.41,4.26,4.26,0,0,1-1.94.36,3.8,3.8,0,0,1-2.58-.73,2.82,2.82,0,0,1-.82-2.22,8.81,8.81,0,0,0-.36-2.84,2.23,2.23,0,0,0-.92-1.3,3.44,3.44,0,0,0-1.58-.3l-1.64,0Zm4.56-10a2,2,0,0,0-1-2,8.28,8.28,0,0,0-3.51-.54V8.78a7.77,7.77,0,0,0,3.44-.58A2.13,2.13,0,0,0,255.32,6.13Z"/><path class="cls-1" d="M277.56,8.52a3.67,3.67,0,0,1,2.22.51,2.08,2.08,0,0,1,.64,1.73,1.53,1.53,0,0,1-.76,1.44,5,5,0,0,1-2.37.43h-4.82v3.16l6.46,0a4.43,4.43,0,0,1,2.4.49,2,2,0,0,1,.73,1.74,2.22,2.22,0,0,1-.85,2,4.69,4.69,0,0,1-2.58.57H269a3.24,3.24,0,0,1-2.58-.94,5.11,5.11,0,0,1-.82-3.32V3.78q0-3.57,3.39-3.57h9.65a4.91,4.91,0,0,1,2.58.54,2.11,2.11,0,0,1,.85,1.94,2.1,2.1,0,0,1-.73,1.83,4.22,4.22,0,0,1-2.4.52h-6.49V8.52Z"/><path class="cls-1" d="M296.41,5.81a1.37,1.37,0,0,0-.52-1.07,1.83,1.83,0,0,0-1.24-.45,2.7,2.7,0,0,0-2.35,1.62,7.31,7.31,0,0,0-.92,3.68,6.59,6.59,0,0,0,.6,2.84,4.79,4.79,0,0,0,1.73,2,4.66,4.66,0,0,0,2.62.74,5.34,5.34,0,0,0,2.11-.43,6.6,6.6,0,0,0,1.64-1,13.28,13.28,0,0,1,1.29-1,2.27,2.27,0,0,1,1.18-.43,1.48,1.48,0,0,1,1.13.52,1.6,1.6,0,0,1,.48,1.09,3.67,3.67,0,0,1-.37,1.46,7.5,7.5,0,0,1-1.18,1.77A11.2,11.2,0,0,1,300.73,19a9.39,9.39,0,0,1-2.67,1.31,10.71,10.71,0,0,1-3.35.52,12.83,12.83,0,0,1-4.3-.7,10.27,10.27,0,0,1-3.44-2,9,9,0,0,1-2.29-3.26,11.19,11.19,0,0,1-.83-4.41,10.12,10.12,0,0,1,2.89-7.62A10.41,10.41,0,0,1,294.29,0a11.84,11.84,0,0,1,4.41.8,7.86,7.86,0,0,1,3.22,2.23,4.78,4.78,0,0,1,1.19,3.13,5.46,5.46,0,0,1-1.31,3.56,4.19,4.19,0,0,1-3.39,1.59,3.69,3.69,0,0,1-2.14-.65,2.14,2.14,0,0,1-1-1.88,3.68,3.68,0,0,1,.55-1.58A3.71,3.71,0,0,0,296.41,5.81Z"/><path class="cls-1" d="M322.88,19.61a11.65,11.65,0,0,1-5.29,1.18,11.55,11.55,0,0,1-5.27-1.18,9,9,0,0,1-3.74-3.53,10.62,10.62,0,0,1-1.4-5.54,10.24,10.24,0,0,1,2.9-7.67,11.38,11.38,0,0,1,15.05,0,10.21,10.21,0,0,1,2.92,7.67,10.55,10.55,0,0,1-1.41,5.54A9.07,9.07,0,0,1,322.88,19.61Zm-5.27-3.17a2.19,2.19,0,0,0,1.74-.89,5.4,5.4,0,0,0,1-2.2,12,12,0,0,0,.31-2.8,12.23,12.23,0,0,0-.33-2.87,6.11,6.11,0,0,0-1.06-2.31,2.12,2.12,0,0,0-1.71-1,2.06,2.06,0,0,0-1.67,1,6.61,6.61,0,0,0-1.07,2.32,11.28,11.28,0,0,0-.36,2.86,11,11,0,0,0,.34,2.8,5.7,5.7,0,0,0,1.07,2.2A2.13,2.13,0,0,0,317.61,16.44Z"/><path class="cls-1" d="M338.28,16.14q0,4.47-3.48,4.47a3.25,3.25,0,0,1-2.58-.94,5.12,5.12,0,0,1-.82-3.32V3.78a3.5,3.5,0,0,1,.94-2.64,3.38,3.38,0,0,1,2.46-.91H341A9.56,9.56,0,0,1,347,2a5.28,5.28,0,0,1,2.26,4.39,5.24,5.24,0,0,1-.85,3.17,4.94,4.94,0,0,1-2.72,1.68,4,4,0,0,1,2.65,1.38,4.53,4.53,0,0,1,1.22,3.23,9.55,9.55,0,0,1-.37,3,2.39,2.39,0,0,1-1.06,1.41,4.26,4.26,0,0,1-1.94.36,3.8,3.8,0,0,1-2.58-.73,2.82,2.82,0,0,1-.82-2.22,8.81,8.81,0,0,0-.36-2.84,2.23,2.23,0,0,0-.92-1.3,3.44,3.44,0,0,0-1.58-.3l-1.64,0Zm4.56-10a2,2,0,0,0-1-2,8.28,8.28,0,0,0-3.51-.54V8.78a7.77,7.77,0,0,0,3.44-.58A2.13,2.13,0,0,0,342.83,6.13Z"/><path class="cls-1" d="M360.85.24a10.37,10.37,0,0,1,7.46,2.68,9.71,9.71,0,0,1,2.81,7.38,15.16,15.16,0,0,1-.28,2.95A11.52,11.52,0,0,1,369.9,16a8.73,8.73,0,0,1-1.64,2.35,7.25,7.25,0,0,1-2.5,1.61,9.11,9.11,0,0,1-3.42.61h-5.87a3.26,3.26,0,0,1-2.61-.92,5.25,5.25,0,0,1-.79-3.33V3.78q0-3.54,3.39-3.54ZM360,16.56a5,5,0,0,0,1.36-.16,3,3,0,0,0,1.1-.6,3.19,3.19,0,0,0,.85-1.15,7.57,7.57,0,0,0,.52-1.83,15.65,15.65,0,0,0,.19-2.64,11.9,11.9,0,0,0-.3-2.87,4.06,4.06,0,0,0-.86-1.79,3.27,3.27,0,0,0-1.24-.86A5.07,5.07,0,0,0,360,4.38Z"/><path class="cls-1" d="M381.93,0a11.81,11.81,0,0,1,6,1.46q2.5,1.46,2.5,3.1a1.42,1.42,0,0,1-.19.76,1.14,1.14,0,0,1-.48.45,1.41,1.41,0,0,1-.61.13,4,4,0,0,1-1.61-.55q-1.07-.55-2.38-1.1a6.29,6.29,0,0,0-2.41-.55Q381,3.69,381,5.12a1.45,1.45,0,0,0,.28.85,3.62,3.62,0,0,0,.91.83,14.07,14.07,0,0,0,1.22.76l1.64.88q1,.55,1.76,1a11,11,0,0,1,3.22,2.5,4.35,4.35,0,0,1,.92,2.74q0,6.16-8.31,6.16a15.16,15.16,0,0,1-3.17-.33,12.48,12.48,0,0,1-2.68-.86,11.5,11.5,0,0,1-2-1.19,5.42,5.42,0,0,1-1.33-1.34,2.38,2.38,0,0,1-.45-1.28,1.58,1.58,0,0,1,.43-1.12,1.65,1.65,0,0,1,1.27-.46,13.88,13.88,0,0,1,3,.79,12.92,12.92,0,0,0,3.84.79q1.34,0,1.34-.92a1.15,1.15,0,0,0-.1-.49,1.41,1.41,0,0,0-.36-.45,4.23,4.23,0,0,0-.57-.42L381,13l-1.1-.6-1.44-.77q-.89-.48-1.73-1a7,7,0,0,1-1.89-1.55,6.52,6.52,0,0,1-1.15-1.83,4.62,4.62,0,0,1-.36-1.68,4.8,4.8,0,0,1,2.23-4.08A10.89,10.89,0,0,1,381.93,0Z"/></g></g></g></svg>